<svg width="39" height="33" viewBox="0 0 39 33" fill="none" xmlns="http://www.w3.org/2000/svg">
<path d="M10 21C9.76605 21.0047 9.53786 20.9272 9.35514 20.7811C9.17242 20.6349 9.04675 20.4293 9 20.2L6.66 8.41C6.52371 7.73054 6.15639 7.11921 5.62045 6.67989C5.08451 6.24056 4.413 6.00033 3.72 6H2C1.73478 6 1.48043 5.89464 1.29289 5.70711C1.10536 5.51957 1 5.26522 1 5C1 4.73478 1.10536 4.48043 1.29289 4.29289C1.48043 4.10536 1.73478 4 2 4H3.72C4.87265 3.99976 5.98999 4.39778 6.8829 5.12669C7.77582 5.8556 8.38947 6.87064 8.62 8L11 19.8C11.0291 19.9315 11.0312 20.0676 11.0064 20.1999C10.9816 20.3323 10.9303 20.4583 10.8556 20.5704C10.7809 20.6825 10.6843 20.7783 10.5716 20.8521C10.459 20.9259 10.3326 20.9762 10.2 21H10Z" fill="#667C87"/>
<path d="M11 28H9.14C8.07939 27.9934 7.06176 27.5801 6.29702 26.8451C5.53227 26.1102 5.07876 25.1098 5.03001 24.0503C4.98127 22.9908 5.34102 21.953 6.03506 21.151C6.72909 20.349 7.70447 19.8439 8.76 19.74L27.17 18.07L28.78 10H8C7.73478 10 7.48043 9.89464 7.29289 9.70711C7.10535 9.51957 7 9.26522 7 9C7 8.73478 7.10535 8.48043 7.29289 8.29289C7.48043 8.10536 7.73478 8 8 8H30C30.1477 8.00098 30.2934 8.03466 30.4265 8.09864C30.5596 8.16261 30.6769 8.25529 30.77 8.37C30.8678 8.48247 30.9391 8.61537 30.9789 8.75897C31.0187 8.90257 31.0259 9.05326 31 9.2L29 19.2C28.9578 19.4115 28.8483 19.6037 28.6879 19.7478C28.5275 19.892 28.3248 19.9805 28.11 20L8.94 21.74C8.37508 21.7665 7.84385 22.0164 7.46315 22.4346C7.08245 22.8528 6.88347 23.4051 6.91 23.97C6.93652 24.5349 7.18636 25.0661 7.60457 25.4468C8.02278 25.8275 8.57509 26.0265 9.14 26H11C11.2652 26 11.5196 26.1054 11.7071 26.2929C11.8946 26.4804 12 26.7348 12 27C12 27.2652 11.8946 27.5196 11.7071 27.7071C11.5196 27.8946 11.2652 28 11 28Z" fill="#667C87"/>
<path d="M26 31C25.2089 31 24.4355 30.7654 23.7777 30.3259C23.1199 29.8864 22.6072 29.2616 22.3045 28.5307C22.0017 27.7998 21.9225 26.9956 22.0769 26.2196C22.2312 25.4437 22.6122 24.731 23.1716 24.1716C23.731 23.6122 24.4437 23.2312 25.2196 23.0769C25.9956 22.9225 26.7998 23.0017 27.5307 23.3045C28.2616 23.6072 28.8864 24.1199 29.3259 24.7777C29.7654 25.4355 30 26.2089 30 27C30 28.0609 29.5786 29.0783 28.8284 29.8284C28.0783 30.5786 27.0609 31 26 31ZM26 25C25.6044 25 25.2178 25.1173 24.8889 25.3371C24.56 25.5568 24.3036 25.8692 24.1522 26.2346C24.0009 26.6001 23.9613 27.0022 24.0384 27.3902C24.1156 27.7781 24.3061 28.1345 24.5858 28.4142C24.8655 28.6939 25.2219 28.8844 25.6098 28.9616C25.9978 29.0387 26.3999 28.9991 26.7654 28.8478C27.1308 28.6964 27.4432 28.44 27.6629 28.1111C27.8827 27.7822 28 27.3956 28 27C28 26.4696 27.7893 25.9609 27.4142 25.5858C27.0391 25.2107 26.5304 25 26 25Z" fill="#667C87"/>
<path d="M14 31C13.2089 31 12.4355 30.7654 11.7777 30.3259C11.1199 29.8864 10.6072 29.2616 10.3045 28.5307C10.0017 27.7998 9.92252 26.9956 10.0769 26.2196C10.2312 25.4437 10.6122 24.731 11.1716 24.1716C11.731 23.6122 12.4437 23.2312 13.2196 23.0769C13.9956 22.9225 14.7998 23.0017 15.5307 23.3045C16.2616 23.6072 16.8864 24.1199 17.3259 24.7777C17.7654 25.4355 18 26.2089 18 27C18 28.0609 17.5786 29.0783 16.8284 29.8284C16.0783 30.5786 15.0609 31 14 31ZM14 25C13.6044 25 13.2178 25.1173 12.8889 25.3371C12.56 25.5568 12.3036 25.8692 12.1522 26.2346C12.0009 26.6001 11.9613 27.0022 12.0384 27.3902C12.1156 27.7781 12.3061 28.1345 12.5858 28.4142C12.8655 28.6939 13.2219 28.8844 13.6098 28.9616C13.9978 29.0387 14.3999 28.9991 14.7654 28.8478C15.1308 28.6964 15.4432 28.44 15.6629 28.1111C15.8827 27.7822 16 27.3956 16 27C16 26.4696 15.7893 25.9609 15.4142 25.5858C15.0391 25.2107 14.5304 25 14 25Z" fill="#667C87"/>
<path d="M23 28H17C16.7348 28 16.4804 27.8946 16.2929 27.7071C16.1054 27.5196 16 27.2652 16 27C16 26.7348 16.1054 26.4804 16.2929 26.2929C16.4804 26.1054 16.7348 26 17 26H23C23.2652 26 23.5196 26.1054 23.7071 26.2929C23.8946 26.4804 24 26.7348 24 27C24 27.2652 23.8946 27.5196 23.7071 27.7071C23.5196 27.8946 23.2652 28 23 28Z" fill="#667C87"/>
<circle cx="30" cy="9" r="9" fill="#FFD700"/>
</svg>
