<svg width="138" height="36" viewBox="0 0 138 36" fill="none" xmlns="http://www.w3.org/2000/svg">
<path d="M14.5063 17.4366L18.2414 11.4307C18.2536 11.4113 18.2638 11.3909 18.2718 11.3697C18.9167 10.3179 19.2573 9.11639 19.2573 7.88971C19.2573 4.20966 16.2633 1.2157 12.5833 1.2157C8.90332 1.2157 5.90914 4.20966 5.90914 7.88971C5.90914 9.11664 6.25019 10.3187 6.89566 11.3712C6.90313 11.3896 6.91185 11.4076 6.92231 11.425L10.5234 17.4515C7.72797 17.8467 5.88971 18.9961 5.88971 20.3905C5.88971 22.1181 8.8256 23.4711 12.5734 23.4711C16.3211 23.4711 19.257 22.1179 19.257 20.3905C19.2573 18.9896 17.3333 17.8145 14.5063 17.4366ZM7.56654 11.0346C6.97114 10.087 6.6565 8.99955 6.6565 7.88971C6.6565 4.62171 9.31512 1.96307 12.5833 1.96307C15.8513 1.96307 18.5099 4.62171 18.5099 7.88971C18.5099 9.00005 18.1953 10.0875 17.6001 11.0346C17.5877 11.0546 17.5775 11.0752 17.5692 11.0967L13.6232 17.4411C13.5639 17.532 13.5522 17.5527 13.4797 17.6718L12.4832 19.2741L7.59992 11.1019C7.5912 11.0787 7.57999 11.0561 7.56654 11.0346ZM12.5736 22.7237C9.07521 22.7237 6.63732 21.4938 6.63732 20.3905C6.63732 19.389 8.47334 18.4453 10.9429 18.1531L12.1561 20.1837C12.2231 20.2955 12.3432 20.3645 12.4735 20.3655C12.4745 20.3655 12.4757 20.3655 12.4767 20.3655C12.6058 20.3655 12.7258 20.2988 12.7941 20.1892L14.0696 18.1384C16.5785 18.4102 18.5097 19.3778 18.5097 20.3905C18.5099 21.4941 16.072 22.7237 12.5736 22.7237Z" fill="#FFD700"/>
<path d="M15.0003 7.88972C15.0003 6.55168 13.9116 5.46301 12.5736 5.46301C11.2356 5.46301 10.1469 6.55168 10.1469 7.88972C10.1469 9.22776 11.2356 10.3164 12.5736 10.3164C13.9116 10.3164 15.0003 9.22776 15.0003 7.88972ZM10.8943 7.88972C10.8943 6.96373 11.6476 6.21038 12.5736 6.21038C13.4996 6.21038 14.2529 6.96373 14.2529 7.88972C14.2529 8.81571 13.4998 9.56906 12.5736 9.56906C11.6474 9.56906 10.8943 8.81571 10.8943 7.88972Z" fill="#FFD700"/>
<path d="M25.3083 14.2834C25.0056 14.2834 24.6882 14.2371 24.3562 14.1443C24.0291 14.0515 23.7532 13.927 23.5286 13.7708L24.1218 12.7161C24.5857 13.0042 24.991 13.1482 25.3376 13.1482C25.5867 13.1482 25.7942 13.1018 25.9602 13.009C26.1311 12.9114 26.302 12.7454 26.4729 12.511C26.6438 12.2766 26.9783 11.7078 27.4763 10.8044L23.2795 3.81714H24.8762L28.1648 9.55933L30.9773 3.81714H32.4788L28.2527 11.8079C27.8425 12.5793 27.5056 13.1189 27.2419 13.4265C26.9832 13.7244 26.7 13.9417 26.3923 14.0784C26.0896 14.2151 25.7283 14.2834 25.3083 14.2834ZM33.2185 12.533V14.137H31.7903V12.533H33.2185ZM37.2615 11.1194L36.075 14.137H34.6248L38.8362 3.81714H40.4255L44.571 14.137H43.1428L41.9636 11.1194H37.2615ZM39.6125 4.87183C39.5295 5.14526 39.4294 5.45044 39.3123 5.78735C39.2 6.11938 39.095 6.41235 38.9973 6.66626L37.6863 10.0281H41.5461L40.2205 6.62231C40.1521 6.45142 40.0618 6.20972 39.9495 5.89722C39.8372 5.58472 39.7249 5.24292 39.6125 4.87183ZM46.9587 10.5261V14.137H45.6404V6.21216H46.9587V9.56665H50.5256V6.21216H51.844V14.137H50.5256V10.5261H46.9587ZM55.2498 7.17163V14.137H53.9314V6.21216H57.9231V7.17163H55.2498ZM61.0652 14.2834C60.2693 14.2834 59.6711 14.0735 59.2708 13.6536C58.8704 13.2336 58.6702 12.6575 58.6702 11.925C58.6702 11.1047 58.9387 10.4749 59.4758 10.0354C60.0178 9.59595 60.8894 9.36157 62.0906 9.33228L63.8704 9.30298V8.87085C63.8704 8.22632 63.7336 7.76489 63.4602 7.48657C63.1868 7.20825 62.7571 7.06909 62.1711 7.06909C61.5803 7.06909 61.1506 7.16919 60.8821 7.36938C60.6135 7.56958 60.4524 7.8894 60.3987 8.32886L59.0217 8.20435C59.2463 6.77856 60.3059 6.06567 62.2004 6.06567C63.1965 6.06567 63.946 6.29517 64.449 6.75415C64.9519 7.20825 65.2034 7.86743 65.2034 8.73169V12.1448C65.2034 12.5354 65.2546 12.8308 65.3572 13.031C65.4597 13.2263 65.655 13.324 65.9431 13.324C66.0798 13.324 66.2239 13.3069 66.3752 13.2727V14.093C66.2092 14.1321 66.0408 14.1614 65.8699 14.1809C65.699 14.2004 65.5281 14.2102 65.3572 14.2102C64.8689 14.2102 64.5125 14.0833 64.2878 13.8293C64.0681 13.5706 63.9436 13.1677 63.9143 12.6208H63.8704C63.5334 13.2263 63.1404 13.656 62.6912 13.9099C62.2468 14.1589 61.7048 14.2834 61.0652 14.2834ZM63.8704 10.2258L62.4275 10.2551C61.8123 10.26 61.3435 10.3235 61.0212 10.4456C60.699 10.5627 60.4524 10.7434 60.2815 10.9875C60.1106 11.2317 60.0251 11.5515 60.0251 11.947C60.0251 12.3767 60.1399 12.7087 60.3694 12.9431C60.6038 13.1775 60.9358 13.2947 61.3655 13.2947C61.8538 13.2947 62.2834 13.1848 62.6545 12.9651C63.0305 12.7454 63.3259 12.4451 63.5408 12.0642C63.7605 11.6785 63.8704 11.283 63.8704 10.8777V10.2258ZM74.095 10.1379C74.095 11.5198 73.8508 12.5574 73.3625 13.2507C72.8792 13.9392 72.1516 14.2834 71.1799 14.2834C69.9592 14.2834 69.1389 13.8245 68.719 12.9065H68.6824C68.7019 12.9407 68.7117 13.3557 68.7117 14.1516V17.2498H67.3933V7.83081C67.3933 7.42554 67.3884 7.08862 67.3787 6.82007C67.3738 6.54663 67.364 6.34399 67.3494 6.21216H68.6238C68.6287 6.23169 68.636 6.3269 68.6458 6.4978C68.6604 6.6687 68.6726 6.85425 68.6824 7.05444C68.6921 7.24976 68.697 7.3938 68.697 7.48657H68.7263C68.9607 6.99829 69.2708 6.64185 69.6565 6.41724C70.0422 6.18774 70.55 6.073 71.1799 6.073C72.1565 6.073 72.8865 6.40015 73.3699 7.05444C73.8533 7.70874 74.095 8.73657 74.095 10.1379ZM72.7107 10.1672C72.7107 9.06372 72.5618 8.27515 72.2639 7.80151C71.9661 7.32788 71.4924 7.09106 70.843 7.09106C70.1204 7.09106 69.5833 7.34253 69.2317 7.84546C68.885 8.34351 68.7117 9.15161 68.7117 10.2698C68.7117 11.3098 68.8777 12.0764 69.2097 12.5696C69.5417 13.0627 70.0813 13.3093 70.8284 13.3093C71.4827 13.3093 71.9587 13.0701 72.2566 12.5916C72.5593 12.1082 72.7107 11.3 72.7107 10.1672ZM78.7825 14.2834C77.6741 14.2834 76.8269 13.9343 76.241 13.2361C75.6599 12.533 75.3694 11.51 75.3694 10.1672C75.3694 8.83423 75.6624 7.8186 76.2483 7.12036C76.8342 6.41724 77.6741 6.06567 78.7678 6.06567C79.5784 6.06567 80.2498 6.27563 80.782 6.69556C81.3191 7.11548 81.656 7.69409 81.7927 8.4314L80.4377 8.53394C80.3694 8.09448 80.196 7.74536 79.9177 7.48657C79.6394 7.22778 79.2439 7.09839 78.7312 7.09839C78.033 7.09839 77.5276 7.33032 77.2151 7.79419C76.9026 8.25806 76.7463 9.03931 76.7463 10.1379C76.7463 11.1926 76.9124 11.9739 77.2444 12.4817C77.5764 12.9895 78.0769 13.2434 78.7458 13.2434C79.2146 13.2434 79.6052 13.1165 79.9177 12.8625C80.2351 12.6086 80.4304 12.218 80.5037 11.6907L81.8367 11.7786C81.7683 12.2864 81.5974 12.7283 81.324 13.1042C81.0554 13.4802 80.7039 13.7708 80.2693 13.9758C79.8396 14.1809 79.344 14.2834 78.7825 14.2834ZM84.5613 10.6433V14.137H83.2429V6.21216H84.5613V9.68384C84.7078 9.68384 84.8396 9.66431 84.9568 9.62524C85.074 9.5813 85.196 9.49829 85.323 9.37622C85.3865 9.31274 85.4548 9.2395 85.5281 9.15649C85.6013 9.0686 85.677 8.96851 85.7551 8.8562C85.8381 8.7439 86.0188 8.46802 86.2971 8.02856C86.5754 7.58423 86.9514 6.97876 87.425 6.21216H88.802L87.22 8.59253C86.7708 9.25659 86.4583 9.65942 86.2825 9.80103L88.8679 14.137H87.4031L85.3669 10.4968C85.2742 10.5359 85.1472 10.5701 84.9861 10.5994C84.8298 10.6287 84.6882 10.6433 84.5613 10.6433ZM92.1638 14.2834C91.3679 14.2834 90.7698 14.0735 90.3694 13.6536C89.969 13.2336 89.7688 12.6575 89.7688 11.925C89.7688 11.1047 90.0374 10.4749 90.5745 10.0354C91.1165 9.59595 91.988 9.36157 93.1892 9.33228L94.969 9.30298V8.87085C94.969 8.22632 94.8323 7.76489 94.5588 7.48657C94.2854 7.20825 93.8557 7.06909 93.2698 7.06909C92.679 7.06909 92.2493 7.16919 91.9807 7.36938C91.7122 7.56958 91.551 7.8894 91.4973 8.32886L90.1204 8.20435C90.345 6.77856 91.4045 6.06567 93.2991 6.06567C94.2952 6.06567 95.0447 6.29517 95.5476 6.75415C96.0505 7.20825 96.302 7.86743 96.302 8.73169V12.1448C96.302 12.5354 96.3533 12.8308 96.4558 13.031C96.5583 13.2263 96.7537 13.324 97.0417 13.324C97.1785 13.324 97.3225 13.3069 97.4739 13.2727V14.093C97.3079 14.1321 97.1394 14.1614 96.9685 14.1809C96.7976 14.2004 96.6267 14.2102 96.4558 14.2102C95.9675 14.2102 95.6111 14.0833 95.3865 13.8293C95.1667 13.5706 95.0422 13.1677 95.0129 12.6208H94.969C94.6321 13.2263 94.239 13.656 93.7898 13.9099C93.3455 14.1589 92.8035 14.2834 92.1638 14.2834ZM94.969 10.2258L93.5261 10.2551C92.9109 10.26 92.4421 10.3235 92.1199 10.4456C91.7976 10.5627 91.551 10.7434 91.3801 10.9875C91.2092 11.2317 91.1238 11.5515 91.1238 11.947C91.1238 12.3767 91.2385 12.7087 91.468 12.9431C91.7024 13.1775 92.0344 13.2947 92.4641 13.2947C92.9524 13.2947 93.3821 13.1848 93.7532 12.9651C94.1292 12.7454 94.4246 12.4451 94.6394 12.0642C94.8591 11.6785 94.969 11.283 94.969 10.8777V10.2258ZM101.4 10.7825L99.0925 14.137H97.6057L100.125 10.6873C99.5198 10.5603 99.0632 10.3064 98.7556 9.92554C98.4529 9.54468 98.3015 9.03687 98.3015 8.4021C98.3015 7.67456 98.5652 7.12769 99.0925 6.76147C99.6199 6.39526 100.389 6.21216 101.4 6.21216H104.564V14.137H103.245V10.7825H101.4ZM101.392 9.86694H103.245V7.14233H101.531C100.897 7.14233 100.433 7.25464 100.14 7.47925C99.8469 7.70386 99.7004 8.04321 99.7004 8.49731C99.7004 8.9563 99.8298 9.30054 100.089 9.53003C100.352 9.75464 100.787 9.86694 101.392 9.86694ZM117.396 13.0164V14.137H110.928V13.0164H113.558V5.0769L111.229 6.7395V5.49438L113.668 3.81714H114.884V13.0164H117.396ZM125.892 8.97339C125.892 10.697 125.587 12.0129 124.976 12.9211C124.371 13.8293 123.475 14.2834 122.288 14.2834C121.102 14.2834 120.211 13.8318 119.615 12.9285C119.019 12.0251 118.721 10.7068 118.721 8.97339C118.721 7.20093 119.01 5.8728 119.586 4.98901C120.167 4.10522 121.082 3.66333 122.332 3.66333C123.548 3.66333 124.444 4.11011 125.02 5.00366C125.601 5.89722 125.892 7.22046 125.892 8.97339ZM124.552 8.97339C124.552 7.97729 124.476 7.16919 124.324 6.54907C124.178 5.92407 123.941 5.46509 123.614 5.17212C123.287 4.87915 122.86 4.73267 122.332 4.73267C121.795 4.73267 121.358 4.87671 121.021 5.16479C120.684 5.45288 120.438 5.90942 120.281 6.53442C120.13 7.15454 120.054 7.96753 120.054 8.97339C120.054 9.94995 120.133 10.7507 120.289 11.3757C120.45 12.0007 120.697 12.4622 121.029 12.76C121.361 13.0579 121.785 13.2068 122.303 13.2068C123.079 13.2068 123.648 12.8601 124.01 12.1667C124.371 11.4734 124.552 10.4089 124.552 8.97339ZM134.073 4.88647C133.546 5.69214 133.094 6.40991 132.718 7.03979C132.347 7.66968 132.054 8.21411 131.839 8.6731C131.405 9.58618 131.077 10.4871 130.858 11.3757C130.643 12.2644 130.535 13.1848 130.535 14.137H129.158C129.158 13.4534 129.229 12.76 129.371 12.0569C129.512 11.3489 129.74 10.6067 130.052 9.83032C130.345 9.10278 130.716 8.33618 131.165 7.53052C131.619 6.71997 132.164 5.85571 132.799 4.93774H127.254V3.81714H134.073V4.88647ZM55.6379 27.1672C55.6379 28.554 55.3328 29.5867 54.7224 30.2654C54.1121 30.9441 53.2258 31.2834 52.0637 31.2834C50.9065 31.2834 50.0325 30.9319 49.4417 30.2288C48.8508 29.5208 48.5554 28.5002 48.5554 27.1672C48.5554 25.8 48.8508 24.7747 49.4417 24.0911C50.0374 23.4075 50.926 23.0657 52.1077 23.0657C53.3186 23.0657 54.2097 23.4001 54.781 24.0691C55.3523 24.7332 55.6379 25.7659 55.6379 27.1672ZM54.2537 27.1672C54.2537 26.0735 54.0901 25.28 53.7629 24.7869C53.4407 24.2888 52.8962 24.0398 52.1296 24.0398C51.3582 24.0398 50.7991 24.2937 50.4524 24.8015C50.1106 25.3044 49.9397 26.093 49.9397 27.1672C49.9397 28.2122 50.1082 28.9983 50.4451 29.5256C50.7869 30.0481 51.3215 30.3093 52.0491 30.3093C52.8401 30.3093 53.4041 30.0554 53.741 29.5476C54.0828 29.0398 54.2537 28.2463 54.2537 27.1672ZM67.9792 27.1379C67.9792 28.5247 67.7522 29.5623 67.2981 30.2507C66.8489 30.9392 66.1848 31.2834 65.3059 31.2834C64.7542 31.2834 64.2927 31.1687 63.9216 30.9392C63.5505 30.7097 63.2673 30.3655 63.072 29.9065H63.0281C63.0378 30.1165 63.0452 30.3264 63.05 30.5364C63.0598 30.7463 63.0647 30.9514 63.0647 31.1516V34.2498H61.8196V31.1516C61.8196 30.8831 61.822 30.6438 61.8269 30.4338C61.8367 30.219 61.8464 30.0286 61.8562 29.8625H61.8196C61.595 30.3704 61.2996 30.7341 60.9333 30.9539C60.572 31.1736 60.1204 31.2834 59.5784 31.2834C58.6702 31.2834 57.9963 30.949 57.5569 30.28C57.1223 29.6062 56.905 28.5833 56.905 27.2112C56.905 25.8293 57.1272 24.7942 57.5715 24.1057C58.0208 23.4124 58.6897 23.0657 59.5784 23.0657C60.1252 23.0657 60.5793 23.1755 60.9407 23.3953C61.3069 23.615 61.5999 23.9641 61.8196 24.4426H61.8562C61.8513 24.2571 61.844 24.0715 61.8342 23.886C61.8245 23.7004 61.8196 23.5173 61.8196 23.3367V20.2678H63.0647V23.344C63.0647 23.5344 63.0623 23.7249 63.0574 23.9153C63.0525 24.1057 63.0476 24.2961 63.0427 24.4866H63.0793C63.304 23.9788 63.592 23.6174 63.9436 23.4026C64.2952 23.1829 64.7493 23.073 65.3059 23.073C66.1995 23.073 66.8684 23.4075 67.3127 24.0764C67.7571 24.7405 67.9792 25.761 67.9792 27.1379ZM58.2893 27.1672C58.2893 28.2659 58.4211 29.0569 58.6848 29.5403C58.9534 30.0237 59.3757 30.2654 59.9519 30.2654C60.5867 30.2654 61.0554 30.0261 61.3582 29.5476C61.6658 29.0642 61.8196 28.3 61.8196 27.2551C61.8196 26.137 61.6731 25.3215 61.3801 24.8088C61.092 24.2961 60.6208 24.0398 59.9666 24.0398C59.3757 24.0398 58.9485 24.2913 58.6848 24.7942C58.4211 25.2971 58.2893 26.0881 58.2893 27.1672ZM66.595 27.1672C66.595 26.1028 66.4631 25.324 66.1995 24.8308C65.9407 24.3376 65.5183 24.0911 64.9324 24.0911C64.2683 24.0911 63.7898 24.3401 63.4968 24.8381C63.2087 25.3313 63.0647 26.1394 63.0647 27.2625C63.0647 28.3269 63.2161 29.1008 63.5188 29.5842C63.8215 30.0676 64.2878 30.3093 64.9177 30.3093C65.4988 30.3093 65.9236 30.0603 66.1921 29.5623C66.4607 29.0593 66.595 28.261 66.595 27.1672ZM74.7761 24.7429L71.0701 31.137H69.6638V23.2122H70.9382V27.5481C70.9382 27.7532 70.9333 27.9705 70.9236 28.2C70.9138 28.4294 70.9041 28.6614 70.8943 28.8958C70.8845 29.1252 70.8748 29.3523 70.865 29.5769L74.5198 23.2122H75.9626V31.137H74.7029V26.303C74.7029 26.1858 74.7053 26.0247 74.7102 25.8196C74.72 25.6096 74.7297 25.4021 74.7395 25.197C74.7542 24.9919 74.7664 24.8406 74.7761 24.7429ZM81.053 31.2834C79.9446 31.2834 79.0974 30.9343 78.5115 30.2361C77.9304 29.533 77.6399 28.51 77.6399 27.1672C77.6399 25.8342 77.9329 24.8186 78.5188 24.1204C79.1047 23.4172 79.9446 23.0657 81.0383 23.0657C81.8489 23.0657 82.5203 23.2756 83.0525 23.6956C83.5896 24.1155 83.9265 24.6941 84.0632 25.4314L82.7083 25.5339C82.6399 25.0945 82.4666 24.7454 82.1882 24.4866C81.9099 24.2278 81.5144 24.0984 81.0017 24.0984C80.3035 24.0984 79.7981 24.3303 79.4856 24.7942C79.1731 25.2581 79.0168 26.0393 79.0168 27.1379C79.0168 28.1926 79.1829 28.9739 79.5149 29.4817C79.8469 29.9895 80.3474 30.2434 81.0164 30.2434C81.4851 30.2434 81.8757 30.1165 82.1882 29.8625C82.5056 29.6086 82.7009 29.218 82.7742 28.6907L84.1072 28.7786C84.0388 29.2864 83.8679 29.7283 83.5945 30.1042C83.3259 30.4802 82.9744 30.7708 82.5398 30.9758C82.1101 31.1809 81.6145 31.2834 81.053 31.2834ZM96.2654 30.0164V31.137H89.4319V30.2068C89.6809 29.6355 89.9812 29.1301 90.3328 28.6907C90.6892 28.2512 91.0676 27.8557 91.468 27.5042C91.8684 27.1526 92.2639 26.8254 92.6545 26.5227C92.8499 26.3713 93.033 26.22 93.2039 26.0686C93.3796 25.9172 93.5457 25.7659 93.7019 25.6145C94.0144 25.3118 94.2659 24.9944 94.4563 24.6624C94.6516 24.3303 94.7493 23.9543 94.7493 23.5344C94.7493 22.968 94.5833 22.5286 94.2512 22.2161C93.9192 21.9036 93.4578 21.7473 92.8669 21.7473C92.3054 21.7473 91.8416 21.9011 91.4753 22.2087C91.114 22.5115 90.9016 22.9387 90.8381 23.4905L89.4905 23.366C89.5881 22.5408 89.9373 21.884 90.5378 21.3958C91.1433 20.9075 91.9197 20.6633 92.8669 20.6633C93.907 20.6633 94.7053 20.9099 95.262 21.4031C95.8235 21.8914 96.1042 22.5872 96.1042 23.4905C96.1042 23.8909 96.0115 24.2888 95.8259 24.6843C95.6453 25.0798 95.3743 25.4753 95.0129 25.8708C94.8323 26.0662 94.5686 26.3176 94.2219 26.6252C93.8752 26.9329 93.448 27.2942 92.9402 27.7092C92.3787 28.1682 91.9319 28.5833 91.5999 28.9543C91.2678 29.3206 91.0286 29.6746 90.8821 30.0164H96.2654ZM104.783 25.9734C104.783 27.697 104.478 29.0129 103.868 29.9211C103.262 30.8293 102.366 31.2834 101.18 31.2834C99.9934 31.2834 99.1023 30.8318 98.5066 29.9285C97.9109 29.0251 97.613 27.7068 97.613 25.9734C97.613 24.2009 97.9011 22.8728 98.4773 21.989C99.0583 21.1052 99.9739 20.6633 101.224 20.6633C102.44 20.6633 103.336 21.1101 103.912 22.0037C104.493 22.8972 104.783 24.2205 104.783 25.9734ZM103.443 25.9734C103.443 24.9773 103.367 24.1692 103.216 23.5491C103.07 22.9241 102.833 22.4651 102.506 22.1721C102.178 21.8792 101.751 21.7327 101.224 21.7327C100.687 21.7327 100.25 21.8767 99.9128 22.1648C99.5759 22.4529 99.3293 22.9094 99.1731 23.5344C99.0217 24.1545 98.946 24.9675 98.946 25.9734C98.946 26.95 99.0242 27.7507 99.1804 28.3757C99.3416 29.0007 99.5881 29.4622 99.9202 29.76C100.252 30.0579 100.677 30.2068 101.195 30.2068C101.971 30.2068 102.54 29.8601 102.901 29.1667C103.262 28.4734 103.443 27.4089 103.443 25.9734ZM111.829 28.8005V31.137H110.584V28.8005H105.721V27.7751L110.445 20.8171H111.829V27.7605H113.28V28.8005H111.829ZM106.937 27.7605H110.584V23.6443C110.584 23.4197 110.584 23.1975 110.584 22.9778C110.589 22.7532 110.599 22.5286 110.614 22.304C110.501 22.5188 110.404 22.6946 110.321 22.8313C110.238 22.9631 110.162 23.0779 110.094 23.1755L106.937 27.7605Z" fill="#667C87"/>
</svg>
