<svg width="418" height="34" viewBox="0 0 418 34" fill="none" xmlns="http://www.w3.org/2000/svg">
<path d="M94.9175 6.05322L90.457 14H87.9961V3.68018H89.915V9.67871C89.915 9.9375 89.9102 10.2354 89.9004 10.5723C89.8906 10.9092 89.876 11.2827 89.8564 11.6929L94.3462 3.68018H96.7778V14H94.8589V7.91357C94.8589 7.72314 94.8638 7.47412 94.8735 7.1665C94.8833 6.854 94.8979 6.48291 94.9175 6.05322ZM98.7847 14V3.68018H100.872V12.2129H104.117V3.68018H106.204V12.2129H109.441V3.68018H111.529V12.2129H112.957V16.9883H111.126V14H98.7847ZM120.992 6.05322L116.531 14H114.07V3.68018H115.989V9.67871C115.989 9.9375 115.984 10.2354 115.975 10.5723C115.965 10.9092 115.95 11.2827 115.931 11.6929L120.42 3.68018H122.852V14H120.933V7.91357C120.933 7.72314 120.938 7.47412 120.948 7.1665C120.958 6.854 120.972 6.48291 120.992 6.05322ZM129.517 5.3501V14H127.356V5.3501H124.024V3.68018H132.857V5.3501H129.517ZM142.444 12.3301V14H134.029V3.68018H142.144V5.3501H136.189V7.94287H141.697V9.61279H136.189V12.3301H142.444ZM152.867 5.3501V14H150.706V5.3501H147.374V3.68018H156.207V5.3501H152.867ZM167.046 8.79248C167.046 9.8667 166.829 10.8066 166.395 11.6123C165.965 12.4131 165.357 13.0356 164.571 13.48C163.79 13.9243 162.872 14.1465 161.817 14.1465C160.738 14.1465 159.81 13.9316 159.034 13.502C158.257 13.0674 157.662 12.4497 157.247 11.6489C156.832 10.8481 156.624 9.896 156.624 8.79248C156.624 7.68896 156.829 6.74414 157.239 5.95801C157.654 5.17188 158.25 4.57129 159.026 4.15625C159.808 3.73633 160.743 3.52637 161.832 3.52637C162.925 3.52637 163.86 3.73877 164.637 4.16357C165.413 4.5835 166.009 5.18652 166.424 5.97266C166.839 6.75879 167.046 7.69873 167.046 8.79248ZM164.842 8.79248C164.842 7.6792 164.578 6.80762 164.051 6.17773C163.523 5.54297 162.784 5.22559 161.832 5.22559C160.865 5.22559 160.118 5.54053 159.59 6.17041C159.063 6.79541 158.799 7.66943 158.799 8.79248C158.799 9.54443 158.921 10.1938 159.166 10.7407C159.41 11.2876 159.756 11.71 160.206 12.0078C160.66 12.3008 161.197 12.4473 161.817 12.4473C162.784 12.4473 163.528 12.1299 164.051 11.4951C164.578 10.8604 164.842 9.95947 164.842 8.79248ZM177.835 11.0557C177.835 11.9932 177.483 12.7183 176.78 13.231C176.077 13.7437 175.101 14 173.851 14H168.687V3.68018H173.411C174.671 3.68018 175.623 3.8999 176.268 4.33936C176.917 4.77393 177.242 5.41846 177.242 6.27295C177.242 6.85889 177.078 7.35449 176.751 7.75977C176.429 8.16016 175.936 8.43115 175.271 8.57275C176.106 8.67041 176.741 8.93408 177.176 9.36377C177.615 9.78857 177.835 10.3525 177.835 11.0557ZM175.066 6.56592C175.066 6.10205 174.917 5.77246 174.62 5.57715C174.327 5.38184 173.89 5.28418 173.309 5.28418H170.848V7.84033H173.323C173.934 7.84033 174.375 7.73535 174.649 7.52539C174.927 7.31055 175.066 6.99072 175.066 6.56592ZM175.667 10.8872C175.667 9.92041 174.974 9.43701 173.587 9.43701H170.848V12.396H173.667C174.361 12.396 174.866 12.2715 175.184 12.0225C175.506 11.7686 175.667 11.3901 175.667 10.8872ZM181.226 11.3633L180.311 14H178.15L181.915 3.68018H184.463L188.213 14H186.075L185.159 11.3633H181.226ZM183.189 5.26953C183.14 5.46484 183.072 5.69922 182.984 5.97266C182.896 6.24609 182.833 6.43896 182.793 6.55127L181.709 9.7373H184.676L183.562 6.48535C183.494 6.28516 183.431 6.08252 183.372 5.87744C183.313 5.67236 183.252 5.46973 183.189 5.26953ZM198.108 6.94678C198.108 7.61572 197.955 8.20898 197.647 8.72656C197.344 9.23926 196.912 9.64209 196.351 9.93506C195.789 10.2231 195.12 10.3672 194.344 10.3672H191.78V14H189.62V3.68018H194.256C195.491 3.68018 196.441 3.96582 197.105 4.53711C197.774 5.10352 198.108 5.90674 198.108 6.94678ZM195.933 6.9834C195.933 5.89941 195.293 5.35742 194.014 5.35742H191.78V8.70459H194.073C194.668 8.70459 195.127 8.55811 195.45 8.26514C195.772 7.96729 195.933 7.54004 195.933 6.9834ZM208.868 10.8433C208.868 11.4634 208.714 12.0127 208.406 12.4912C208.099 12.9648 207.659 13.3359 207.088 13.6045C206.517 13.8682 205.838 14 205.052 14H199.625V3.68018H207.396V5.34277H201.785V7.78906H205.286C206.434 7.78906 207.317 8.05762 207.938 8.59473C208.558 9.12695 208.868 9.87646 208.868 10.8433ZM206.685 10.8726C206.685 10.4185 206.514 10.0693 206.172 9.8252C205.835 9.57617 205.33 9.45166 204.656 9.45166H201.785V12.3154H204.7C205.364 12.3154 205.86 12.1958 206.187 11.9565C206.519 11.7124 206.685 11.3511 206.685 10.8726ZM216.734 9.56885V14H214.581V3.68018H216.741V8.06738C216.868 8.06738 217 8.03076 217.137 7.95752C217.273 7.87939 217.415 7.76465 217.562 7.61328C217.859 7.2959 218.235 6.77588 218.689 6.05322L220.198 3.68018H222.396L220.455 6.64648C219.844 7.57422 219.427 8.12109 219.202 8.28711L222.754 14H220.403L217.664 9.3125C217.566 9.37598 217.422 9.43457 217.232 9.48828C217.042 9.54199 216.875 9.56885 216.734 9.56885ZM233.77 8.79248C233.77 9.8667 233.553 10.8066 233.118 11.6123C232.688 12.4131 232.081 13.0356 231.294 13.48C230.513 13.9243 229.595 14.1465 228.541 14.1465C227.461 14.1465 226.534 13.9316 225.757 13.502C224.981 13.0674 224.385 12.4497 223.97 11.6489C223.555 10.8481 223.348 9.896 223.348 8.79248C223.348 7.68896 223.553 6.74414 223.963 5.95801C224.378 5.17188 224.974 4.57129 225.75 4.15625C226.531 3.73633 227.466 3.52637 228.555 3.52637C229.649 3.52637 230.584 3.73877 231.36 4.16357C232.137 4.5835 232.732 5.18652 233.147 5.97266C233.562 6.75879 233.77 7.69873 233.77 8.79248ZM231.565 8.79248C231.565 7.6792 231.302 6.80762 230.774 6.17773C230.247 5.54297 229.507 5.22559 228.555 5.22559C227.588 5.22559 226.841 5.54053 226.314 6.17041C225.787 6.79541 225.523 7.66943 225.523 8.79248C225.523 9.54443 225.645 10.1938 225.889 10.7407C226.133 11.2876 226.48 11.71 226.929 12.0078C227.383 12.3008 227.92 12.4473 228.541 12.4473C229.507 12.4473 230.252 12.1299 230.774 11.4951C231.302 10.8604 231.565 9.95947 231.565 8.79248ZM240.069 5.3501V14H237.908V5.3501H234.576V3.68018H243.409V5.3501H240.069ZM254.249 8.79248C254.249 9.8667 254.031 10.8066 253.597 11.6123C253.167 12.4131 252.559 13.0356 251.773 13.48C250.992 13.9243 250.074 14.1465 249.019 14.1465C247.94 14.1465 247.012 13.9316 246.236 13.502C245.459 13.0674 244.864 12.4497 244.449 11.6489C244.034 10.8481 243.826 9.896 243.826 8.79248C243.826 7.68896 244.031 6.74414 244.441 5.95801C244.856 5.17188 245.452 4.57129 246.229 4.15625C247.01 3.73633 247.945 3.52637 249.034 3.52637C250.127 3.52637 251.062 3.73877 251.839 4.16357C252.615 4.5835 253.211 5.18652 253.626 5.97266C254.041 6.75879 254.249 7.69873 254.249 8.79248ZM252.044 8.79248C252.044 7.6792 251.78 6.80762 251.253 6.17773C250.726 5.54297 249.986 5.22559 249.034 5.22559C248.067 5.22559 247.32 5.54053 246.792 6.17041C246.265 6.79541 246.001 7.66943 246.001 8.79248C246.001 9.54443 246.124 10.1938 246.368 10.7407C246.612 11.2876 246.958 11.71 247.408 12.0078C247.862 12.3008 248.399 12.4473 249.019 12.4473C249.986 12.4473 250.73 12.1299 251.253 11.4951C251.78 10.8604 252.044 9.95947 252.044 8.79248ZM264.378 6.94678C264.378 7.61572 264.224 8.20898 263.917 8.72656C263.614 9.23926 263.182 9.64209 262.62 9.93506C262.059 10.2231 261.39 10.3672 260.613 10.3672H258.05V14H255.889V3.68018H260.525C261.761 3.68018 262.71 3.96582 263.375 4.53711C264.043 5.10352 264.378 5.90674 264.378 6.94678ZM262.203 6.9834C262.203 5.89941 261.563 5.35742 260.284 5.35742H258.05V8.70459H260.342C260.938 8.70459 261.397 8.55811 261.719 8.26514C262.042 7.96729 262.203 7.54004 262.203 6.9834ZM275.723 8.79248C275.723 9.8667 275.506 10.8066 275.071 11.6123C274.642 12.4131 274.034 13.0356 273.248 13.48C272.466 13.9243 271.548 14.1465 270.494 14.1465C269.415 14.1465 268.487 13.9316 267.71 13.502C266.934 13.0674 266.338 12.4497 265.923 11.6489C265.508 10.8481 265.301 9.896 265.301 8.79248C265.301 7.68896 265.506 6.74414 265.916 5.95801C266.331 5.17188 266.927 4.57129 267.703 4.15625C268.484 3.73633 269.419 3.52637 270.508 3.52637C271.602 3.52637 272.537 3.73877 273.313 4.16357C274.09 4.5835 274.686 5.18652 275.101 5.97266C275.516 6.75879 275.723 7.69873 275.723 8.79248ZM273.519 8.79248C273.519 7.6792 273.255 6.80762 272.728 6.17773C272.2 5.54297 271.46 5.22559 270.508 5.22559C269.542 5.22559 268.794 5.54053 268.267 6.17041C267.74 6.79541 267.476 7.66943 267.476 8.79248C267.476 9.54443 267.598 10.1938 267.842 10.7407C268.086 11.2876 268.433 11.71 268.882 12.0078C269.336 12.3008 269.874 12.4473 270.494 12.4473C271.46 12.4473 272.205 12.1299 272.728 11.4951C273.255 10.8604 273.519 9.95947 273.519 8.79248ZM279.524 5.3501V13.9927H277.364V3.68018H284.571V5.3501H279.524ZM295.704 8.79248C295.704 9.8667 295.486 10.8066 295.052 11.6123C294.622 12.4131 294.014 13.0356 293.228 13.48C292.447 13.9243 291.529 14.1465 290.474 14.1465C289.395 14.1465 288.467 13.9316 287.691 13.502C286.915 13.0674 286.319 12.4497 285.904 11.6489C285.489 10.8481 285.281 9.896 285.281 8.79248C285.281 7.68896 285.486 6.74414 285.896 5.95801C286.312 5.17188 286.907 4.57129 287.684 4.15625C288.465 3.73633 289.4 3.52637 290.489 3.52637C291.583 3.52637 292.518 3.73877 293.294 4.16357C294.07 4.5835 294.666 5.18652 295.081 5.97266C295.496 6.75879 295.704 7.69873 295.704 8.79248ZM293.499 8.79248C293.499 7.6792 293.235 6.80762 292.708 6.17773C292.181 5.54297 291.441 5.22559 290.489 5.22559C289.522 5.22559 288.775 5.54053 288.248 6.17041C287.72 6.79541 287.457 7.66943 287.457 8.79248C287.457 9.54443 287.579 10.1938 287.823 10.7407C288.067 11.2876 288.414 11.71 288.863 12.0078C289.317 12.3008 289.854 12.4473 290.474 12.4473C291.441 12.4473 292.186 12.1299 292.708 11.4951C293.235 10.8604 293.499 9.95947 293.499 8.79248ZM303.68 9.57617V14H301.519V3.68018H303.68V7.78906H308.177V3.68018H310.337V14H308.177V9.57617H303.68ZM320.774 12.3301V14H312.359V3.68018H320.474V5.3501H314.52V7.94287H320.027V9.61279H314.52V12.3301H320.774ZM327.022 5.3501V14H324.861V5.3501H321.529V3.68018H330.362V5.3501H327.022ZM131.912 26.5762V31H129.751V20.6802H131.912V24.7891H136.409V20.6802H138.57V31H136.409V26.5762H131.912ZM143.038 28.3633L142.122 31H139.961L143.726 20.6802H146.275L150.025 31H147.886L146.971 28.3633H143.038ZM145 22.2695C144.952 22.4648 144.883 22.6992 144.795 22.9727C144.708 23.2461 144.644 23.439 144.605 23.5513L143.521 26.7373H146.487L145.374 23.4854C145.306 23.2852 145.242 23.0825 145.184 22.8774C145.125 22.6724 145.064 22.4697 145 22.2695ZM157.767 26.5762V31H155.606V20.6802H157.767V24.7891H162.264V20.6802H164.424V31H162.264V26.5762H157.767ZM168.892 28.3633L167.977 31H165.816L169.581 20.6802H172.129L175.879 31H173.741L172.825 28.3633H168.892ZM170.855 22.2695C170.806 22.4648 170.738 22.6992 170.65 22.9727C170.562 23.2461 170.499 23.439 170.459 23.5513L169.375 26.7373H172.342L171.229 23.4854C171.16 23.2852 171.097 23.0825 171.038 22.8774C170.979 22.6724 170.918 22.4697 170.855 22.2695ZM190.352 20.6802V31H177.286V20.6802H179.373V29.2129H182.771V20.6802H184.859V29.2129H188.265V20.6802H190.352ZM200.774 29.3301V31H192.359V20.6802H200.474V22.3501H194.52V24.9429H200.027V26.6128H194.52V29.3301H200.774ZM204.283 24.7451V31H202.364V20.6802H205.257L207.103 26.4517C207.186 26.7739 207.271 27.0986 207.359 27.4258C207.447 27.748 207.532 28.0703 207.615 28.3926C207.669 28.207 207.72 28.0239 207.769 27.8433C207.818 27.6577 207.867 27.4722 207.916 27.2866C207.969 27.1011 208.023 26.918 208.077 26.7373L209.974 20.6802H212.852V31H210.933V24.7451C210.933 24.6035 210.938 24.3203 210.948 23.8955C210.962 23.4658 210.982 22.9995 211.006 22.4966C210.835 23.1509 210.684 23.7075 210.552 24.1665C210.425 24.6255 210.32 24.9844 210.237 25.2432L208.377 31H206.839L204.979 25.2432L204.195 22.4966C204.224 23.063 204.246 23.5342 204.261 23.9102C204.275 24.2812 204.283 24.5596 204.283 24.7451ZM223.853 29.4473C225.162 29.4473 226.067 28.793 226.57 27.4844L228.453 28.1948C228.047 29.1909 227.452 29.9331 226.666 30.4214C225.884 30.9048 224.947 31.1465 223.853 31.1465C222.75 31.1465 221.81 30.9365 221.033 30.5166C220.257 30.0918 219.664 29.479 219.253 28.6782C218.848 27.8774 218.646 26.9155 218.646 25.7925C218.646 24.6597 218.841 23.7026 219.231 22.9214C219.622 22.1401 220.198 21.5469 220.96 21.1416C221.722 20.7314 222.654 20.5264 223.758 20.5264C224.969 20.5264 225.955 20.7705 226.717 21.2588C227.479 21.7422 228.013 22.4551 228.321 23.3975L226.417 23.9175C226.255 23.3999 225.938 22.9897 225.464 22.687C224.996 22.3794 224.441 22.2256 223.802 22.2256C222.825 22.2256 222.083 22.5283 221.575 23.1338C221.072 23.7393 220.821 24.6255 220.821 25.7925C220.821 26.5835 220.936 27.25 221.165 27.792C221.399 28.334 221.741 28.7466 222.19 29.0298C222.645 29.3081 223.199 29.4473 223.853 29.4473ZM231.939 28.3633L231.023 31H228.863L232.627 20.6802H235.176L238.926 31H236.788L235.872 28.3633H231.939ZM233.902 22.2695C233.853 22.4648 233.785 22.6992 233.697 22.9727C233.609 23.2461 233.545 23.439 233.506 23.5513L232.422 26.7373H235.389L234.275 23.4854C234.207 23.2852 234.144 23.0825 234.085 22.8774C234.026 22.6724 233.965 22.4697 233.902 22.2695ZM247.247 23.0532L242.786 31H240.325V20.6802H242.244V26.6787C242.244 26.9375 242.239 27.2354 242.229 27.5723C242.22 27.9092 242.205 28.2827 242.186 28.6929L246.675 20.6802H249.107V31H247.188V24.9136C247.188 24.7231 247.193 24.4741 247.203 24.1665C247.212 23.854 247.227 23.4829 247.247 23.0532ZM244.764 19.9111C243.787 19.9111 243.055 19.7109 242.566 19.3105C242.083 18.9102 241.822 18.2803 241.783 17.4209H243.423C243.472 18.3926 243.919 18.8784 244.764 18.8784C245.608 18.8784 246.055 18.3926 246.104 17.4209H247.745C247.706 18.2852 247.442 18.9175 246.954 19.3179C246.47 19.7134 245.74 19.9111 244.764 19.9111ZM255.772 22.3501V31H253.611V22.3501H250.279V20.6802H259.112V22.3501H255.772ZM268.699 29.3301V31H260.284V20.6802H268.399V22.3501H262.444V24.9429H267.952V26.6128H262.444V29.3301H268.699ZM277.583 23.4854C277.583 23.959 277.476 24.3838 277.261 24.7598C277.051 25.1357 276.656 25.5312 276.075 25.9463L275.518 26.3491C274.874 26.8081 274.537 27.3184 274.507 27.8799H272.552C272.571 27.5479 272.64 27.2402 272.757 26.957C272.874 26.6738 273.042 26.4077 273.262 26.1587C273.487 25.9097 273.76 25.6729 274.083 25.4482C274.434 25.2041 274.712 24.9844 274.917 24.7891C275.127 24.5889 275.279 24.3936 275.372 24.2031C275.464 24.0078 275.511 23.7979 275.511 23.5732C275.511 23.1436 275.369 22.8042 275.086 22.5552C274.808 22.3062 274.41 22.1816 273.892 22.1816C273.399 22.1816 272.984 22.3257 272.647 22.6138C272.315 22.9019 272.12 23.2827 272.061 23.7563L269.974 23.6685C270.105 22.6772 270.513 21.9058 271.197 21.354C271.88 20.8022 272.769 20.5264 273.863 20.5264C275.02 20.5264 275.928 20.79 276.587 21.3174C277.251 21.8398 277.583 22.5625 277.583 23.4854ZM274.61 29.0225V31H272.493V29.0225H274.61Z" fill="#667C87"/>
<rect y="16" width="76" height="1" fill="#667C87"/>
<rect x="342" y="16" width="76" height="1" fill="#667C87"/>
</svg>
