<svg width="140" height="25" viewBox="0 0 140 25" fill="none" xmlns="http://www.w3.org/2000/svg">
<path d="M30.9146 13.5469V16.6816H29.8379V13.5469H26.7324V12.4775H29.8379V9.34277H30.9146V12.4775H34.02V13.5469H30.9146ZM42.3477 8.74951C41.8203 9.55518 41.3687 10.2729 40.9927 10.9028C40.6216 11.5327 40.3286 12.0771 40.1138 12.5361C39.6792 13.4492 39.3521 14.3501 39.1323 15.2388C38.9175 16.1274 38.8101 17.0479 38.8101 18H37.4331C37.4331 17.3164 37.5039 16.623 37.6455 15.9199C37.7871 15.2119 38.0142 14.4697 38.3267 13.6934C38.6196 12.9658 38.9907 12.1992 39.4399 11.3936C39.894 10.583 40.4385 9.71875 41.0732 8.80078H35.5288V7.68018H42.3477V8.74951ZM54.8721 8.74951C54.3447 9.55518 53.8931 10.2729 53.5171 10.9028C53.146 11.5327 52.853 12.0771 52.6382 12.5361C52.2036 13.4492 51.8765 14.3501 51.6567 15.2388C51.4419 16.1274 51.3345 17.0479 51.3345 18H49.9575C49.9575 17.3164 50.0283 16.623 50.1699 15.9199C50.3115 15.2119 50.5386 14.4697 50.8511 13.6934C51.144 12.9658 51.5151 12.1992 51.9644 11.3936C52.4185 10.583 52.9629 9.71875 53.5977 8.80078H48.0532V7.68018H54.8721V8.74951ZM63.3901 12.8364C63.3901 14.5601 63.085 15.876 62.4746 16.7842C61.8691 17.6924 60.9731 18.1465 59.7866 18.1465C58.6001 18.1465 57.709 17.6948 57.1133 16.7915C56.5176 15.8882 56.2197 14.5698 56.2197 12.8364C56.2197 11.064 56.5078 9.73584 57.084 8.85205C57.665 7.96826 58.5806 7.52637 59.8306 7.52637C61.0464 7.52637 61.9424 7.97314 62.5186 8.8667C63.0996 9.76025 63.3901 11.0835 63.3901 12.8364ZM62.0498 12.8364C62.0498 11.8403 61.9741 11.0322 61.8228 10.4121C61.6763 9.78711 61.4395 9.32812 61.1123 9.03516C60.7852 8.74219 60.3579 8.5957 59.8306 8.5957C59.2935 8.5957 58.8564 8.73975 58.5195 9.02783C58.1826 9.31592 57.936 9.77246 57.7798 10.3975C57.6284 11.0176 57.5527 11.8306 57.5527 12.8364C57.5527 13.813 57.6309 14.6138 57.7871 15.2388C57.9482 15.8638 58.1948 16.3252 58.5269 16.623C58.8589 16.9209 59.2837 17.0698 59.8013 17.0698C60.5776 17.0698 61.1465 16.7231 61.5078 16.0298C61.8691 15.3364 62.0498 14.272 62.0498 12.8364ZM71.7397 12.8364C71.7397 14.5601 71.4346 15.876 70.8242 16.7842C70.2188 17.6924 69.3228 18.1465 68.1362 18.1465C66.9497 18.1465 66.0586 17.6948 65.4629 16.7915C64.8672 15.8882 64.5693 14.5698 64.5693 12.8364C64.5693 11.064 64.8574 9.73584 65.4336 8.85205C66.0146 7.96826 66.9302 7.52637 68.1802 7.52637C69.396 7.52637 70.292 7.97314 70.8682 8.8667C71.4492 9.76025 71.7397 11.0835 71.7397 12.8364ZM70.3994 12.8364C70.3994 11.8403 70.3237 11.0322 70.1724 10.4121C70.0259 9.78711 69.7891 9.32812 69.4619 9.03516C69.1348 8.74219 68.7075 8.5957 68.1802 8.5957C67.6431 8.5957 67.2061 8.73975 66.8691 9.02783C66.5322 9.31592 66.2856 9.77246 66.1294 10.3975C65.978 11.0176 65.9023 11.8306 65.9023 12.8364C65.9023 13.813 65.9805 14.6138 66.1367 15.2388C66.2979 15.8638 66.5444 16.3252 66.8765 16.623C67.2085 16.9209 67.6333 17.0698 68.1509 17.0698C68.9272 17.0698 69.4961 16.7231 69.8574 16.0298C70.2188 15.3364 70.3994 14.272 70.3994 12.8364ZM84.0957 16.8794V18H77.2622V17.0698C77.5112 16.4985 77.8115 15.9932 78.1631 15.5537C78.5195 15.1143 78.8979 14.7188 79.2983 14.3672C79.6987 14.0156 80.0942 13.6885 80.4849 13.3857C80.6802 13.2344 80.8633 13.083 81.0342 12.9316C81.21 12.7803 81.376 12.6289 81.5322 12.4775C81.8447 12.1748 82.0962 11.8574 82.2866 11.5254C82.4819 11.1934 82.5796 10.8174 82.5796 10.3975C82.5796 9.83105 82.4136 9.3916 82.0815 9.0791C81.7495 8.7666 81.2881 8.61035 80.6973 8.61035C80.1357 8.61035 79.6719 8.76416 79.3057 9.07178C78.9443 9.37451 78.7319 9.80176 78.6685 10.3535L77.3208 10.229C77.4185 9.40381 77.7676 8.74707 78.3682 8.25879C78.9736 7.77051 79.75 7.52637 80.6973 7.52637C81.7373 7.52637 82.5356 7.77295 83.0923 8.26611C83.6538 8.75439 83.9346 9.4502 83.9346 10.3535C83.9346 10.7539 83.8418 11.1519 83.6562 11.5474C83.4756 11.9429 83.2046 12.3384 82.8433 12.7339C82.6626 12.9292 82.3989 13.1807 82.0522 13.4883C81.7056 13.7959 81.2783 14.1572 80.7705 14.5723C80.209 15.0312 79.7622 15.4463 79.4302 15.8174C79.0981 16.1836 78.8589 16.5376 78.7124 16.8794H84.0957ZM92.5405 15.1509C92.5405 16.103 92.2378 16.8403 91.6323 17.3628C91.0269 17.8853 90.1626 18.1465 89.0396 18.1465C87.9946 18.1465 87.1597 17.9121 86.5347 17.4434C85.9146 16.9697 85.5459 16.2715 85.4287 15.3486L86.791 15.2241C86.9668 16.4448 87.7163 17.0552 89.0396 17.0552C89.7036 17.0552 90.2236 16.8916 90.5996 16.5645C90.9805 16.2373 91.1709 15.7515 91.1709 15.1069C91.1709 14.5454 90.9536 14.1084 90.519 13.7959C90.0894 13.4785 89.4668 13.3198 88.6514 13.3198H87.9043V12.1772H88.6221C89.3447 12.1772 89.9038 12.021 90.2993 11.7085C90.6997 11.3911 90.8999 10.9541 90.8999 10.3975C90.8999 9.8457 90.7363 9.41113 90.4092 9.09375C90.0869 8.77148 89.606 8.61035 88.9663 8.61035C88.3853 8.61035 87.9141 8.75928 87.5527 9.05713C87.1963 9.35498 86.9888 9.7749 86.9302 10.3169L85.6045 10.2144C85.7021 9.36963 86.0513 8.71045 86.6519 8.23682C87.2573 7.76318 88.0337 7.52637 88.981 7.52637C90.0161 7.52637 90.8193 7.76807 91.3906 8.25146C91.9668 8.72998 92.2549 9.39893 92.2549 10.2583C92.2549 10.9175 92.0693 11.4546 91.6982 11.8696C91.332 12.2798 90.7974 12.5581 90.0942 12.7046V12.7339C90.8657 12.8169 91.4663 13.0757 91.896 13.5103C92.3257 13.9448 92.5405 14.4917 92.5405 15.1509ZM100.795 16.8794V18H93.9614V17.0698C94.2104 16.4985 94.5107 15.9932 94.8623 15.5537C95.2188 15.1143 95.5972 14.7188 95.9976 14.3672C96.3979 14.0156 96.7935 13.6885 97.1841 13.3857C97.3794 13.2344 97.5625 13.083 97.7334 12.9316C97.9092 12.7803 98.0752 12.6289 98.2314 12.4775C98.5439 12.1748 98.7954 11.8574 98.9858 11.5254C99.1812 11.1934 99.2788 10.8174 99.2788 10.3975C99.2788 9.83105 99.1128 9.3916 98.7808 9.0791C98.4487 8.7666 97.9873 8.61035 97.3965 8.61035C96.835 8.61035 96.3711 8.76416 96.0049 9.07178C95.6436 9.37451 95.4312 9.80176 95.3677 10.3535L94.02 10.229C94.1177 9.40381 94.4668 8.74707 95.0674 8.25879C95.6729 7.77051 96.4492 7.52637 97.3965 7.52637C98.4365 7.52637 99.2349 7.77295 99.7915 8.26611C100.353 8.75439 100.634 9.4502 100.634 10.3535C100.634 10.7539 100.541 11.1519 100.355 11.5474C100.175 11.9429 99.9038 12.3384 99.5425 12.7339C99.3618 12.9292 99.0981 13.1807 98.7515 13.4883C98.4048 13.7959 97.9775 14.1572 97.4697 14.5723C96.9082 15.0312 96.4614 15.4463 96.1294 15.8174C95.7974 16.1836 95.5581 16.5376 95.4116 16.8794H100.795ZM113.488 12.8364C113.488 14.5601 113.183 15.876 112.572 16.7842C111.967 17.6924 111.071 18.1465 109.884 18.1465C108.698 18.1465 107.807 17.6948 107.211 16.7915C106.615 15.8882 106.317 14.5698 106.317 12.8364C106.317 11.064 106.605 9.73584 107.182 8.85205C107.763 7.96826 108.678 7.52637 109.928 7.52637C111.144 7.52637 112.04 7.97314 112.616 8.8667C113.197 9.76025 113.488 11.0835 113.488 12.8364ZM112.147 12.8364C112.147 11.8403 112.072 11.0322 111.92 10.4121C111.774 9.78711 111.537 9.32812 111.21 9.03516C110.883 8.74219 110.456 8.5957 109.928 8.5957C109.391 8.5957 108.954 8.73975 108.617 9.02783C108.28 9.31592 108.034 9.77246 107.877 10.3975C107.726 11.0176 107.65 11.8306 107.65 12.8364C107.65 13.813 107.729 14.6138 107.885 15.2388C108.046 15.8638 108.292 16.3252 108.625 16.623C108.957 16.9209 109.381 17.0698 109.899 17.0698C110.675 17.0698 111.244 16.7231 111.605 16.0298C111.967 15.3364 112.147 14.272 112.147 12.8364ZM121.691 16.8794V18H115.224V16.8794H117.853V8.93994L115.524 10.6025V9.35742L117.963 7.68018H119.179V16.8794H121.691ZM128.883 15.6636V18H127.638V15.6636H122.775V14.6382L127.499 7.68018H128.883V14.6235H130.333V15.6636H128.883ZM123.991 14.6235H127.638V10.5073C127.638 10.2827 127.638 10.0605 127.638 9.84082C127.643 9.61621 127.653 9.3916 127.667 9.16699C127.555 9.38184 127.458 9.55762 127.375 9.69434C127.292 9.82617 127.216 9.94092 127.147 10.0386L123.991 14.6235ZM137.233 15.6636V18H135.988V15.6636H131.125V14.6382L135.849 7.68018H137.233V14.6235H138.683V15.6636H137.233ZM132.34 14.6235H135.988V10.5073C135.988 10.2827 135.988 10.0605 135.988 9.84082C135.993 9.61621 136.002 9.3916 136.017 9.16699C135.905 9.38184 135.807 9.55762 135.724 9.69434C135.641 9.82617 135.565 9.94092 135.497 10.0386L132.34 14.6235Z" fill="#667C87"/>
<g clip-path="url(#clip0_11_33)">
<path d="M24.4827 17.9924L20.7372 14.2481C20.4044 13.9145 19.9611 13.7309 19.4896 13.7309C19.4896 13.7309 19.4887 13.7309 19.4879 13.7309C19.0164 13.7309 18.5731 13.9154 18.2403 14.2481L15.7433 16.7443L8.25138 9.25485L10.7484 6.75864C11.4371 6.07016 11.4371 4.94916 10.7475 4.26067L7.00111 0.516365C6.66824 0.183596 6.22499 0 5.75349 0C5.28111 0 4.83699 0.184479 4.50411 0.51813L0.757732 4.26332C0.643831 4.3763 -0.343313 5.44434 0.125536 7.79137C0.678266 10.5533 2.99161 13.9869 7.00111 17.9951C12.7394 23.7316 16.3587 25.0009 18.438 25.0009C19.8773 25.0009 20.5801 24.3927 20.7372 24.2356L24.4827 20.4913C24.8165 20.1576 25.001 19.7137 25.0002 19.2414C25.0002 18.7701 24.8165 18.3261 24.4827 17.9924ZM19.4888 22.9866C19.464 23.0113 16.4788 24.9718 8.24961 16.7461C-0.157009 8.34304 2.00976 5.51054 2.00623 5.51142L5.75261 1.76535L9.49899 5.51142L6.37774 8.63168C6.03251 8.9768 6.03251 9.53465 6.37774 9.87978L15.1181 18.6174C15.4634 18.9625 16.0214 18.9625 16.3666 18.6174L19.4879 15.4962L23.2342 19.2423L19.4888 22.9866Z" fill="#FFD700"/>
</g>
<defs>
<clipPath id="clip0_11_33">
<rect width="25" height="25" fill="white"/>
</clipPath>
</defs>
</svg>
