<svg width="71" height="44" viewBox="0 0 71 44" fill="none" xmlns="http://www.w3.org/2000/svg">
<rect x="15" width="56" height="44" rx="10" fill="#FFD700"/>
<rect width="20" height="44" fill="#FFD700"/>
<path d="M25.228 25.5C26.8435 27.1178 28.9949 28.089 31.2768 28.2306C33.5587 28.3722 35.8137 27.6745 37.6168 26.2689L43.8211 32.4732C44.0412 32.6857 44.3359 32.8033 44.6418 32.8006C44.9477 32.798 45.2403 32.6753 45.4566 32.459C45.6729 32.2427 45.7956 31.9501 45.7983 31.6442C45.8009 31.3383 45.6833 31.0436 45.4708 30.8235L39.2665 24.6192C40.7345 22.7352 41.4285 20.3622 41.2071 17.9841C40.9856 15.606 39.8654 13.4019 38.0747 11.8214C36.2841 10.2409 33.958 9.40296 31.5708 9.47852C29.1836 9.55408 26.9151 10.5374 25.228 12.228C24.3562 13.0993 23.6647 14.1338 23.1929 15.2725C22.7211 16.4111 22.4783 17.6315 22.4783 18.864C22.4783 20.0965 22.7211 21.317 23.1929 22.4556C23.6647 23.5942 24.3562 24.6287 25.228 25.5ZM26.8776 13.88C28.031 12.7267 29.5485 12.009 31.1717 11.8491C32.7949 11.6892 34.4233 12.0971 35.7795 13.0032C37.1357 13.9093 38.1358 15.2576 38.6093 16.8184C39.0828 18.3792 39.0006 20.0559 38.3765 21.5628C37.7524 23.0698 36.6252 24.3137 35.1868 25.0827C33.7484 25.8517 32.0879 26.0982 30.4882 25.7802C28.8884 25.4621 27.4484 24.5993 26.4135 23.3386C25.3787 22.0779 24.8129 20.4974 24.8126 18.8664C24.8094 17.9395 24.9903 17.0213 25.3448 16.1649C25.6993 15.3086 26.2203 14.5311 26.8776 13.8777V13.88ZM26.3923 18.8629C26.3923 18.5534 26.5152 18.2567 26.734 18.0379C26.9528 17.8191 27.2496 17.6962 27.559 17.6962C27.8684 17.6962 28.1651 17.8191 28.3839 18.0379C28.6027 18.2567 28.7256 18.5534 28.7256 18.8629C28.7266 19.6946 29.0574 20.492 29.6455 21.0801C30.2337 21.6683 31.0311 21.9991 31.8628 22C32.1722 22 32.469 22.1229 32.6878 22.3417C32.9066 22.5605 33.0295 22.8573 33.0295 23.1667C33.0295 23.4761 32.9066 23.7729 32.6878 23.9917C32.469 24.2104 32.1722 24.3334 31.8628 24.3334C30.413 24.33 29.0235 23.7525 27.9983 22.7273C26.9731 21.7022 26.3957 20.3127 26.3923 18.8629Z" fill="#667C87"/>
</svg>
