<svg width="241" height="17" viewBox="0 0 241 17" fill="none" xmlns="http://www.w3.org/2000/svg">
<path d="M92.6616 5.3501V14H90.501V5.3501H87.1685V3.68018H96.0015V5.3501H92.6616ZM106.841 8.79248C106.841 9.8667 106.624 10.8066 106.189 11.6123C105.76 12.4131 105.152 13.0356 104.366 13.48C103.584 13.9243 102.667 14.1465 101.612 14.1465C100.533 14.1465 99.605 13.9316 98.8286 13.502C98.0522 13.0674 97.4565 12.4497 97.0415 11.6489C96.6265 10.8481 96.4189 9.896 96.4189 8.79248C96.4189 7.68896 96.624 6.74414 97.0342 5.95801C97.4492 5.17188 98.0449 4.57129 98.8213 4.15625C99.6025 3.73633 100.538 3.52637 101.626 3.52637C102.72 3.52637 103.655 3.73877 104.432 4.16357C105.208 4.5835 105.804 5.18652 106.219 5.97266C106.634 6.75879 106.841 7.69873 106.841 8.79248ZM104.637 8.79248C104.637 7.6792 104.373 6.80762 103.846 6.17773C103.318 5.54297 102.579 5.22559 101.626 5.22559C100.66 5.22559 99.9126 5.54053 99.3853 6.17041C98.8579 6.79541 98.5942 7.66943 98.5942 8.79248C98.5942 9.54443 98.7163 10.1938 98.9604 10.7407C99.2046 11.2876 99.5513 11.71 100 12.0078C100.455 12.3008 100.992 12.4473 101.612 12.4473C102.579 12.4473 103.323 12.1299 103.846 11.4951C104.373 10.8604 104.637 9.95947 104.637 8.79248ZM117.63 11.0557C117.63 11.9932 117.278 12.7183 116.575 13.231C115.872 13.7437 114.896 14 113.646 14H108.482V3.68018H113.206C114.466 3.68018 115.418 3.8999 116.062 4.33936C116.712 4.77393 117.037 5.41846 117.037 6.27295C117.037 6.85889 116.873 7.35449 116.546 7.75977C116.224 8.16016 115.73 8.43115 115.066 8.57275C115.901 8.67041 116.536 8.93408 116.971 9.36377C117.41 9.78857 117.63 10.3525 117.63 11.0557ZM114.861 6.56592C114.861 6.10205 114.712 5.77246 114.415 5.57715C114.122 5.38184 113.685 5.28418 113.104 5.28418H110.643V7.84033H113.118C113.729 7.84033 114.17 7.73535 114.444 7.52539C114.722 7.31055 114.861 6.99072 114.861 6.56592ZM115.462 10.8872C115.462 9.92041 114.769 9.43701 113.382 9.43701H110.643V12.396H113.462C114.156 12.396 114.661 12.2715 114.979 12.0225C115.301 11.7686 115.462 11.3901 115.462 10.8872ZM121.021 11.3633L120.105 14H117.945L121.709 3.68018H124.258L128.008 14H125.87L124.954 11.3633H121.021ZM122.984 5.26953C122.935 5.46484 122.867 5.69922 122.779 5.97266C122.691 6.24609 122.627 6.43896 122.588 6.55127L121.504 9.7373H124.471L123.357 6.48535C123.289 6.28516 123.226 6.08252 123.167 5.87744C123.108 5.67236 123.047 5.46973 122.984 5.26953ZM137.903 6.94678C137.903 7.61572 137.75 8.20898 137.442 8.72656C137.139 9.23926 136.707 9.64209 136.146 9.93506C135.584 10.2231 134.915 10.3672 134.139 10.3672H131.575V14H129.415V3.68018H134.051C135.286 3.68018 136.236 3.96582 136.9 4.53711C137.569 5.10352 137.903 5.90674 137.903 6.94678ZM135.728 6.9834C135.728 5.89941 135.088 5.35742 133.809 5.35742H131.575V8.70459H133.868C134.463 8.70459 134.922 8.55811 135.245 8.26514C135.567 7.96729 135.728 7.54004 135.728 6.9834ZM148.37 10.8433C148.37 11.4634 148.216 12.0127 147.908 12.4912C147.601 12.9648 147.161 13.3359 146.59 13.6045C146.019 13.8682 145.34 14 144.554 14H139.419V3.68018H141.58V7.78906H144.788C145.936 7.78906 146.819 8.05762 147.439 8.59473C148.06 9.12695 148.37 9.87646 148.37 10.8433ZM152.098 3.68018V14H149.937V3.68018H152.098ZM146.187 10.8726C146.187 10.4185 146.016 10.0693 145.674 9.8252C145.337 9.57617 144.832 9.45166 144.158 9.45166H141.58V12.3154H144.202C144.866 12.3154 145.362 12.1958 145.689 11.9565C146.021 11.7124 146.187 11.3511 146.187 10.8726Z" fill="#667C87"/>
<rect y="8" width="76" height="1" fill="#667C87"/>
<rect x="165" y="8" width="76" height="1" fill="#667C87"/>
</svg>
