<svg width="439" height="17" viewBox="0 0 439 17" fill="none" xmlns="http://www.w3.org/2000/svg">
<path d="M98.0376 8.79248C98.0376 9.8667 97.8203 10.8066 97.3857 11.6123C96.9561 12.4131 96.3481 13.0356 95.562 13.48C94.7808 13.9243 93.8628 14.1465 92.8081 14.1465C91.729 14.1465 90.8013 13.9316 90.0249 13.502C89.2485 13.0674 88.6528 12.4497 88.2378 11.6489C87.8228 10.8481 87.6152 9.896 87.6152 8.79248C87.6152 7.68896 87.8203 6.74414 88.2305 5.95801C88.6455 5.17188 89.2412 4.57129 90.0176 4.15625C90.7988 3.73633 91.7339 3.52637 92.8228 3.52637C93.9165 3.52637 94.8516 3.73877 95.6279 4.16357C96.4043 4.5835 97 5.18652 97.415 5.97266C97.8301 6.75879 98.0376 7.69873 98.0376 8.79248ZM95.833 8.79248C95.833 7.6792 95.5693 6.80762 95.042 6.17773C94.5146 5.54297 93.7749 5.22559 92.8228 5.22559C91.856 5.22559 91.1089 5.54053 90.5815 6.17041C90.0542 6.79541 89.7905 7.66943 89.7905 8.79248C89.7905 9.54443 89.9126 10.1938 90.1567 10.7407C90.4009 11.2876 90.7476 11.71 91.1968 12.0078C91.6509 12.3008 92.188 12.4473 92.8081 12.4473C93.7749 12.4473 94.5195 12.1299 95.042 11.4951C95.5693 10.8604 95.833 9.95947 95.833 8.79248ZM108.167 6.94678C108.167 7.61572 108.013 8.20898 107.706 8.72656C107.403 9.23926 106.971 9.64209 106.409 9.93506C105.848 10.2231 105.179 10.3672 104.402 10.3672H101.839V14H99.6782V3.68018H104.314C105.55 3.68018 106.5 3.96582 107.164 4.53711C107.833 5.10352 108.167 5.90674 108.167 6.94678ZM105.992 6.9834C105.992 5.89941 105.352 5.35742 104.073 5.35742H101.839V8.70459H104.131C104.727 8.70459 105.186 8.55811 105.508 8.26514C105.831 7.96729 105.992 7.54004 105.992 6.9834ZM111.844 5.3501V13.9927H109.683V3.68018H116.89V5.3501H111.844ZM122.852 5.3501V14H120.691V5.3501H117.359V3.68018H126.192V5.3501H122.852ZM135.779 12.3301V14H127.364V3.68018H135.479V5.3501H129.524V7.94287H135.032V9.61279H129.524V12.3301H135.779ZM141.375 9.89111L138.782 14H136.497L140.071 8.57275L136.797 3.68018H139.083L141.375 7.32764L143.667 3.68018H145.938L142.803 8.57275L146.238 14H143.968L141.375 9.89111ZM149.534 9.57617V14H147.374V3.68018H149.534V7.78906H154.031V3.68018H156.192V14H154.031V9.57617H149.534ZM165.127 6.05322L160.667 14H158.206V3.68018H160.125V9.67871C160.125 9.9375 160.12 10.2354 160.11 10.5723C160.101 10.9092 160.086 11.2827 160.066 11.6929L164.556 3.68018H166.988V14H165.069V7.91357C165.069 7.72314 165.074 7.47412 165.083 7.1665C165.093 6.854 165.108 6.48291 165.127 6.05322ZM171.148 9.56885V14H168.995V3.68018H171.155V8.06738C171.282 8.06738 171.414 8.03076 171.551 7.95752C171.688 7.87939 171.829 7.76465 171.976 7.61328C172.273 7.2959 172.649 6.77588 173.104 6.05322L174.612 3.68018H176.81L174.869 6.64648C174.258 7.57422 173.841 8.12109 173.616 8.28711L177.168 14H174.817L172.078 9.3125C171.98 9.37598 171.836 9.43457 171.646 9.48828C171.456 9.54199 171.29 9.56885 171.148 9.56885ZM180.596 11.3633L179.681 14H177.52L181.285 3.68018H183.833L187.583 14H185.445L184.529 11.3633H180.596ZM182.559 5.26953C182.51 5.46484 182.442 5.69922 182.354 5.97266C182.266 6.24609 182.203 6.43896 182.164 6.55127L181.08 9.7373H184.046L182.933 6.48535C182.864 6.28516 182.801 6.08252 182.742 5.87744C182.684 5.67236 182.623 5.46973 182.559 5.26953ZM200.079 6.05322L195.618 14H193.157V3.68018H195.076V9.67871C195.076 9.9375 195.071 10.2354 195.062 10.5723C195.052 10.9092 195.037 11.2827 195.018 11.6929L199.507 3.68018H201.939V14H200.02V7.91357C200.02 7.72314 200.025 7.47412 200.035 7.1665C200.044 6.854 200.059 6.48291 200.079 6.05322ZM210.274 9.56885V14H208.121V3.68018H210.281V8.06738C210.408 8.06738 210.54 8.03076 210.677 7.95752C210.813 7.87939 210.955 7.76465 211.102 7.61328C211.399 7.2959 211.775 6.77588 212.229 6.05322L213.738 3.68018H215.936L213.995 6.64648C213.384 7.57422 212.967 8.12109 212.742 8.28711L216.294 14H213.943L211.204 9.3125C211.106 9.37598 210.962 9.43457 210.772 9.48828C210.582 9.54199 210.416 9.56885 210.274 9.56885ZM227.31 8.79248C227.31 9.8667 227.093 10.8066 226.658 11.6123C226.229 12.4131 225.621 13.0356 224.834 13.48C224.053 13.9243 223.135 14.1465 222.081 14.1465C221.001 14.1465 220.074 13.9316 219.297 13.502C218.521 13.0674 217.925 12.4497 217.51 11.6489C217.095 10.8481 216.888 9.896 216.888 8.79248C216.888 7.68896 217.093 6.74414 217.503 5.95801C217.918 5.17188 218.514 4.57129 219.29 4.15625C220.071 3.73633 221.006 3.52637 222.095 3.52637C223.189 3.52637 224.124 3.73877 224.9 4.16357C225.677 4.5835 226.272 5.18652 226.688 5.97266C227.103 6.75879 227.31 7.69873 227.31 8.79248ZM225.105 8.79248C225.105 7.6792 224.842 6.80762 224.314 6.17773C223.787 5.54297 223.047 5.22559 222.095 5.22559C221.128 5.22559 220.381 5.54053 219.854 6.17041C219.327 6.79541 219.063 7.66943 219.063 8.79248C219.063 9.54443 219.185 10.1938 219.429 10.7407C219.673 11.2876 220.02 11.71 220.469 12.0078C220.923 12.3008 221.46 12.4473 222.081 12.4473C223.047 12.4473 223.792 12.1299 224.314 11.4951C224.842 10.8604 225.105 9.95947 225.105 8.79248ZM230.87 7.74512V14H228.951V3.68018H231.844L233.689 9.45166C233.772 9.77393 233.858 10.0986 233.946 10.4258C234.034 10.748 234.119 11.0703 234.202 11.3926C234.256 11.207 234.307 11.0239 234.356 10.8433C234.405 10.6577 234.454 10.4722 234.502 10.2866C234.556 10.1011 234.61 9.91797 234.664 9.7373L236.561 3.68018H239.439V14H237.52V7.74512C237.52 7.60352 237.525 7.32031 237.535 6.89551C237.549 6.46582 237.569 5.99951 237.593 5.49658C237.422 6.15088 237.271 6.70752 237.139 7.1665C237.012 7.62549 236.907 7.98438 236.824 8.24316L234.964 14H233.426L231.565 8.24316L230.782 5.49658C230.811 6.06299 230.833 6.53418 230.848 6.91016C230.862 7.28125 230.87 7.55957 230.87 7.74512ZM243.599 5.46729V14H241.446V3.68018H250.22V14H248.133V5.46729H243.599ZM254.556 11.9492C254.307 12.7305 253.992 13.2871 253.611 13.6191C253.23 13.9512 252.696 14.1172 252.007 14.1172C251.675 14.1172 251.434 14.0757 251.282 13.9927V12.1836C251.346 12.2178 251.451 12.2349 251.597 12.2349C251.739 12.2349 251.866 12.1934 251.978 12.1104C252.09 12.0225 252.193 11.8931 252.286 11.7222C252.369 11.5659 252.447 11.3706 252.52 11.1362C252.598 10.897 252.674 10.6138 252.747 10.2866C252.791 10.0864 252.837 9.84961 252.886 9.57617C252.935 9.30273 252.996 8.93408 253.069 8.47021C253.147 8.00146 253.243 7.38379 253.355 6.61719C253.467 5.85059 253.606 4.87158 253.772 3.68018H260.745V14H258.665V5.46729H255.684L255.325 8.01611C255.062 9.84229 254.805 11.1533 254.556 11.9492ZM271.175 12.3301V14H262.759V3.68018H270.875V5.3501H264.92V7.94287H270.428V9.61279H264.92V12.3301H271.175ZM274.917 9.56885V14H272.764V3.68018H274.925V8.06738C275.052 8.06738 275.184 8.03076 275.32 7.95752C275.457 7.87939 275.599 7.76465 275.745 7.61328C276.043 7.2959 276.419 6.77588 276.873 6.05322L278.382 3.68018H280.579L278.638 6.64648C278.028 7.57422 277.61 8.12109 277.386 8.28711L280.938 14H278.587L275.848 9.3125C275.75 9.37598 275.606 9.43457 275.416 9.48828C275.225 9.54199 275.059 9.56885 274.917 9.56885ZM286.958 5.3501V14H284.798V5.3501H281.465V3.68018H290.298V5.3501H286.958ZM292.964 14.1465C292.618 14.1465 292.273 14.1025 291.932 14.0146C291.59 13.9316 291.316 13.8291 291.111 13.707L291.712 11.9053C292.146 12.1104 292.537 12.2129 292.884 12.2129C293.113 12.2129 293.309 12.1689 293.47 12.0811C293.636 11.9932 293.792 11.8516 293.938 11.6562C294.085 11.4512 294.288 11.0679 294.546 10.5063L290.474 3.68018H292.723L295.564 8.66064L297.747 3.68018H299.937L296.092 11.6709C295.755 12.374 295.447 12.8867 295.169 13.209C294.886 13.5361 294.568 13.7754 294.217 13.9268C293.87 14.0732 293.453 14.1465 292.964 14.1465ZM314.637 8.79248C314.637 9.86182 314.441 10.8066 314.051 11.627C313.66 12.4375 313.099 13.0601 312.366 13.4946C311.634 13.9292 310.774 14.1465 309.788 14.1465C308.87 14.1465 308.069 13.9658 307.386 13.6045C306.707 13.2383 306.165 12.7158 305.76 12.0371C305.354 11.3535 305.105 10.5332 305.013 9.57617H302.962V14H300.801V3.68018H302.962V7.78906H305.035C305.206 6.42188 305.706 5.36963 306.536 4.63232C307.371 3.89502 308.46 3.52637 309.803 3.52637C310.813 3.52637 311.678 3.73877 312.396 4.16357C313.118 4.5835 313.672 5.18652 314.058 5.97266C314.444 6.75879 314.637 7.69873 314.637 8.79248ZM312.432 8.79248C312.432 7.65479 312.205 6.77588 311.751 6.15576C311.297 5.53564 310.647 5.22559 309.803 5.22559C308.943 5.22559 308.287 5.53809 307.833 6.16309C307.383 6.78809 307.159 7.66455 307.159 8.79248C307.159 9.56396 307.261 10.2231 307.466 10.77C307.676 11.312 307.979 11.7271 308.375 12.0151C308.77 12.3032 309.244 12.4473 309.795 12.4473C310.645 12.4473 311.297 12.1348 311.751 11.5098C312.205 10.8848 312.432 9.979 312.432 8.79248ZM316.27 14V3.68018H318.357V12.2129H321.602V3.68018H323.689V12.2129H326.927V3.68018H329.014V12.2129H330.442V16.9883H328.611V14H316.27ZM338.477 6.05322L334.017 14H331.556V3.68018H333.475V9.67871C333.475 9.9375 333.47 10.2354 333.46 10.5723C333.45 10.9092 333.436 11.2827 333.416 11.6929L337.906 3.68018H340.337V14H338.418V7.91357C338.418 7.72314 338.423 7.47412 338.433 7.1665C338.443 6.854 338.458 6.48291 338.477 6.05322ZM350.76 12.3301V14H342.344V3.68018H350.459V5.3501H344.505V7.94287H350.013V9.61279H344.505V12.3301H350.76Z" fill="#667C87"/>
<rect y="9" width="76" height="1" fill="#667C87"/>
<path d="M363 9H439V10H363V9Z" fill="#667C87"/>
</svg>
