<svg width="384" height="17" viewBox="0 0 384 17" fill="none" xmlns="http://www.w3.org/2000/svg">
<path d="M90.1641 5.3501V13.9927H88.0034V3.68018H95.2104V5.3501H90.1641ZM105.003 6.94678C105.003 7.61572 104.849 8.20898 104.542 8.72656C104.239 9.23926 103.807 9.64209 103.245 9.93506C102.684 10.2231 102.015 10.3672 101.238 10.3672H98.6748V14H96.5142V3.68018H101.15C102.386 3.68018 103.335 3.96582 104 4.53711C104.668 5.10352 105.003 5.90674 105.003 6.94678ZM102.828 6.9834C102.828 5.89941 102.188 5.35742 100.909 5.35742H98.6748V8.70459H100.967C101.563 8.70459 102.022 8.55811 102.344 8.26514C102.667 7.96729 102.828 7.54004 102.828 6.9834ZM107.808 14.1465C107.461 14.1465 107.117 14.1025 106.775 14.0146C106.434 13.9316 106.16 13.8291 105.955 13.707L106.556 11.9053C106.99 12.1104 107.381 12.2129 107.728 12.2129C107.957 12.2129 108.152 12.1689 108.313 12.0811C108.479 11.9932 108.636 11.8516 108.782 11.6562C108.929 11.4512 109.131 11.0679 109.39 10.5063L105.318 3.68018H107.566L110.408 8.66064L112.591 3.68018H114.781L110.936 11.6709C110.599 12.374 110.291 12.8867 110.013 13.209C109.729 13.5361 109.412 13.7754 109.061 13.9268C108.714 14.0732 108.296 14.1465 107.808 14.1465ZM117.798 5.46729V14H115.645V3.68018H124.419V14H122.332V5.46729H117.798ZM128.58 5.46729V14H126.426V3.68018H135.201V14H133.113V5.46729H128.58ZM146.158 10.8433C146.158 11.4634 146.004 12.0127 145.696 12.4912C145.389 12.9648 144.949 13.3359 144.378 13.6045C143.807 13.8682 143.128 14 142.342 14H137.208V3.68018H139.368V7.78906H142.576C143.724 7.78906 144.607 8.05762 145.228 8.59473C145.848 9.12695 146.158 9.87646 146.158 10.8433ZM149.886 3.68018V14H147.725V3.68018H149.886ZM143.975 10.8726C143.975 10.4185 143.804 10.0693 143.462 9.8252C143.125 9.57617 142.62 9.45166 141.946 9.45166H139.368V12.3154H141.99C142.654 12.3154 143.15 12.1958 143.477 11.9565C143.809 11.7124 143.975 11.3511 143.975 10.8726ZM160.733 5.3501V14H158.572V5.3501H155.24V3.68018H164.073V5.3501H160.733ZM174.913 8.79248C174.913 9.8667 174.695 10.8066 174.261 11.6123C173.831 12.4131 173.223 13.0356 172.437 13.48C171.656 13.9243 170.738 14.1465 169.683 14.1465C168.604 14.1465 167.676 13.9316 166.9 13.502C166.124 13.0674 165.528 12.4497 165.113 11.6489C164.698 10.8481 164.49 9.896 164.49 8.79248C164.49 7.68896 164.695 6.74414 165.105 5.95801C165.521 5.17188 166.116 4.57129 166.893 4.15625C167.674 3.73633 168.609 3.52637 169.698 3.52637C170.792 3.52637 171.727 3.73877 172.503 4.16357C173.279 4.5835 173.875 5.18652 174.29 5.97266C174.705 6.75879 174.913 7.69873 174.913 8.79248ZM172.708 8.79248C172.708 7.6792 172.444 6.80762 171.917 6.17773C171.39 5.54297 170.65 5.22559 169.698 5.22559C168.731 5.22559 167.984 5.54053 167.457 6.17041C166.929 6.79541 166.666 7.66943 166.666 8.79248C166.666 9.54443 166.788 10.1938 167.032 10.7407C167.276 11.2876 167.623 11.71 168.072 12.0078C168.526 12.3008 169.063 12.4473 169.683 12.4473C170.65 12.4473 171.395 12.1299 171.917 11.4951C172.444 10.8604 172.708 9.95947 172.708 8.79248ZM185.701 11.0557C185.701 11.9932 185.35 12.7183 184.646 13.231C183.943 13.7437 182.967 14 181.717 14H176.553V3.68018H181.277C182.537 3.68018 183.489 3.8999 184.134 4.33936C184.783 4.77393 185.108 5.41846 185.108 6.27295C185.108 6.85889 184.944 7.35449 184.617 7.75977C184.295 8.16016 183.802 8.43115 183.138 8.57275C183.973 8.67041 184.607 8.93408 185.042 9.36377C185.481 9.78857 185.701 10.3525 185.701 11.0557ZM182.933 6.56592C182.933 6.10205 182.784 5.77246 182.486 5.57715C182.193 5.38184 181.756 5.28418 181.175 5.28418H178.714V7.84033H181.189C181.8 7.84033 182.242 7.73535 182.515 7.52539C182.793 7.31055 182.933 6.99072 182.933 6.56592ZM183.533 10.8872C183.533 9.92041 182.84 9.43701 181.453 9.43701H178.714V12.396H181.534C182.227 12.396 182.732 12.2715 183.05 12.0225C183.372 11.7686 183.533 11.3901 183.533 10.8872ZM189.092 11.3633L188.177 14H186.016L189.781 3.68018H192.33L196.08 14H193.941L193.025 11.3633H189.092ZM191.055 5.26953C191.006 5.46484 190.938 5.69922 190.85 5.97266C190.762 6.24609 190.699 6.43896 190.66 6.55127L189.576 9.7373H192.542L191.429 6.48535C191.36 6.28516 191.297 6.08252 191.238 5.87744C191.18 5.67236 191.119 5.46973 191.055 5.26953ZM205.975 6.94678C205.975 7.61572 205.821 8.20898 205.513 8.72656C205.21 9.23926 204.778 9.64209 204.217 9.93506C203.655 10.2231 202.986 10.3672 202.21 10.3672H199.646V14H197.486V3.68018H202.122C203.357 3.68018 204.307 3.96582 204.971 4.53711C205.64 5.10352 205.975 5.90674 205.975 6.94678ZM203.799 6.9834C203.799 5.89941 203.16 5.35742 201.88 5.35742H199.646V8.70459H201.939C202.535 8.70459 202.994 8.55811 203.316 8.26514C203.638 7.96729 203.799 7.54004 203.799 6.9834ZM217.32 8.79248C217.32 9.8667 217.103 10.8066 216.668 11.6123C216.238 12.4131 215.63 13.0356 214.844 13.48C214.063 13.9243 213.145 14.1465 212.09 14.1465C211.011 14.1465 210.083 13.9316 209.307 13.502C208.531 13.0674 207.935 12.4497 207.52 11.6489C207.105 10.8481 206.897 9.896 206.897 8.79248C206.897 7.68896 207.103 6.74414 207.513 5.95801C207.928 5.17188 208.523 4.57129 209.3 4.15625C210.081 3.73633 211.016 3.52637 212.105 3.52637C213.199 3.52637 214.134 3.73877 214.91 4.16357C215.687 4.5835 216.282 5.18652 216.697 5.97266C217.112 6.75879 217.32 7.69873 217.32 8.79248ZM215.115 8.79248C215.115 7.6792 214.852 6.80762 214.324 6.17773C213.797 5.54297 213.057 5.22559 212.105 5.22559C211.138 5.22559 210.391 5.54053 209.864 6.17041C209.336 6.79541 209.073 7.66943 209.073 8.79248C209.073 9.54443 209.195 10.1938 209.439 10.7407C209.683 11.2876 210.03 11.71 210.479 12.0078C210.933 12.3008 211.47 12.4473 212.09 12.4473C213.057 12.4473 213.802 12.1299 214.324 11.4951C214.852 10.8604 215.115 9.95947 215.115 8.79248ZM228.108 11.0557C228.108 11.9932 227.757 12.7183 227.054 13.231C226.351 13.7437 225.374 14 224.124 14H218.96V3.68018H223.685C224.944 3.68018 225.896 3.8999 226.541 4.33936C227.19 4.77393 227.515 5.41846 227.515 6.27295C227.515 6.85889 227.352 7.35449 227.024 7.75977C226.702 8.16016 226.209 8.43115 225.545 8.57275C226.38 8.67041 227.015 8.93408 227.449 9.36377C227.889 9.78857 228.108 10.3525 228.108 11.0557ZM225.34 6.56592C225.34 6.10205 225.191 5.77246 224.893 5.57715C224.6 5.38184 224.163 5.28418 223.582 5.28418H221.121V7.84033H223.597C224.207 7.84033 224.649 7.73535 224.922 7.52539C225.201 7.31055 225.34 6.99072 225.34 6.56592ZM225.94 10.8872C225.94 9.92041 225.247 9.43701 223.86 9.43701H221.121V12.396H223.941C224.634 12.396 225.14 12.2715 225.457 12.0225C225.779 11.7686 225.94 11.3901 225.94 10.8872ZM240.889 6.05322L236.429 14H233.968V3.68018H235.887V9.67871C235.887 9.9375 235.882 10.2354 235.872 10.5723C235.862 10.9092 235.848 11.2827 235.828 11.6929L240.318 3.68018H242.75V14H240.831V7.91357C240.831 7.72314 240.835 7.47412 240.845 7.1665C240.855 6.854 240.87 6.48291 240.889 6.05322ZM250.425 14.1465C250.079 14.1465 249.734 14.1025 249.393 14.0146C249.051 13.9316 248.777 13.8291 248.572 13.707L249.173 11.9053C249.607 12.1104 249.998 12.2129 250.345 12.2129C250.574 12.2129 250.77 12.1689 250.931 12.0811C251.097 11.9932 251.253 11.8516 251.399 11.6562C251.546 11.4512 251.749 11.0679 252.007 10.5063L247.935 3.68018H250.184L253.025 8.66064L255.208 3.68018H257.398L253.553 11.6709C253.216 12.374 252.908 12.8867 252.63 13.209C252.347 13.5361 252.029 13.7754 251.678 13.9268C251.331 14.0732 250.914 14.1465 250.425 14.1465ZM263.082 12.4473C264.39 12.4473 265.296 11.793 265.799 10.4844L267.681 11.1948C267.276 12.1909 266.68 12.9331 265.894 13.4214C265.113 13.9048 264.175 14.1465 263.082 14.1465C261.978 14.1465 261.038 13.9365 260.262 13.5166C259.485 13.0918 258.892 12.479 258.482 11.6782C258.077 10.8774 257.874 9.91553 257.874 8.79248C257.874 7.65967 258.069 6.70264 258.46 5.92139C258.851 5.14014 259.427 4.54687 260.188 4.1416C260.95 3.73145 261.883 3.52637 262.986 3.52637C264.197 3.52637 265.184 3.77051 265.945 4.25879C266.707 4.74219 267.242 5.45508 267.549 6.39746L265.645 6.91748C265.484 6.3999 265.167 5.98975 264.693 5.68701C264.224 5.37939 263.67 5.22559 263.03 5.22559C262.054 5.22559 261.312 5.52832 260.804 6.13379C260.301 6.73926 260.049 7.62549 260.049 8.79248C260.049 9.5835 260.164 10.25 260.394 10.792C260.628 11.334 260.97 11.7466 261.419 12.0298C261.873 12.3081 262.427 12.4473 263.082 12.4473ZM271.065 11.9492C270.816 12.7305 270.501 13.2871 270.12 13.6191C269.739 13.9512 269.205 14.1172 268.516 14.1172C268.184 14.1172 267.942 14.0757 267.791 13.9927V12.1836C267.854 12.2178 267.959 12.2349 268.106 12.2349C268.248 12.2349 268.375 12.1934 268.487 12.1104C268.599 12.0225 268.702 11.8931 268.794 11.7222C268.877 11.5659 268.956 11.3706 269.029 11.1362C269.107 10.897 269.183 10.6138 269.256 10.2866C269.3 10.0864 269.346 9.84961 269.395 9.57617C269.444 9.30273 269.505 8.93408 269.578 8.47021C269.656 8.00146 269.751 7.38379 269.864 6.61719C269.976 5.85059 270.115 4.87158 270.281 3.68018H277.254V14H275.174V5.46729H272.193L271.834 8.01611C271.57 9.84229 271.314 11.1533 271.065 11.9492ZM280.762 14.1465C280.416 14.1465 280.071 14.1025 279.729 14.0146C279.388 13.9316 279.114 13.8291 278.909 13.707L279.51 11.9053C279.944 12.1104 280.335 12.2129 280.682 12.2129C280.911 12.2129 281.106 12.1689 281.268 12.0811C281.434 11.9932 281.59 11.8516 281.736 11.6562C281.883 11.4512 282.085 11.0679 282.344 10.5063L278.272 3.68018H280.521L283.362 8.66064L285.545 3.68018H287.735L283.89 11.6709C283.553 12.374 283.245 12.8867 282.967 13.209C282.684 13.5361 282.366 13.7754 282.015 13.9268C281.668 14.0732 281.25 14.1465 280.762 14.1465ZM290.76 5.3501V13.9927H288.599V3.68018H295.806V5.3501H290.76Z" fill="#667C87"/>
<rect y="8" width="76" height="1" fill="#667C87"/>
<rect x="308" y="8" width="76" height="1" fill="#667C87"/>
</svg>
