<svg width="521" height="34" viewBox="0 0 521 34" fill="none" xmlns="http://www.w3.org/2000/svg">
<path d="M90.1567 5.46729V14H88.0034V3.68018H96.7778V14H94.6904V5.46729H90.1567ZM107.273 6.94678C107.273 7.61572 107.12 8.20898 106.812 8.72656C106.509 9.23926 106.077 9.64209 105.516 9.93506C104.954 10.2231 104.285 10.3672 103.509 10.3672H100.945V14H98.7847V3.68018H103.421C104.656 3.68018 105.606 3.96582 106.27 4.53711C106.939 5.10352 107.273 5.90674 107.273 6.94678ZM105.098 6.9834C105.098 5.89941 104.458 5.35742 103.179 5.35742H100.945V8.70459H103.238C103.833 8.70459 104.292 8.55811 104.615 8.26514C104.937 7.96729 105.098 7.54004 105.098 6.9834ZM118.619 8.79248C118.619 9.8667 118.401 10.8066 117.967 11.6123C117.537 12.4131 116.929 13.0356 116.143 13.48C115.362 13.9243 114.444 14.1465 113.389 14.1465C112.31 14.1465 111.382 13.9316 110.606 13.502C109.83 13.0674 109.234 12.4497 108.819 11.6489C108.404 10.8481 108.196 9.896 108.196 8.79248C108.196 7.68896 108.401 6.74414 108.812 5.95801C109.227 5.17188 109.822 4.57129 110.599 4.15625C111.38 3.73633 112.315 3.52637 113.404 3.52637C114.498 3.52637 115.433 3.73877 116.209 4.16357C116.985 4.5835 117.581 5.18652 117.996 5.97266C118.411 6.75879 118.619 7.69873 118.619 8.79248ZM116.414 8.79248C116.414 7.6792 116.15 6.80762 115.623 6.17773C115.096 5.54297 114.356 5.22559 113.404 5.22559C112.437 5.22559 111.69 5.54053 111.163 6.17041C110.635 6.79541 110.372 7.66943 110.372 8.79248C110.372 9.54443 110.494 10.1938 110.738 10.7407C110.982 11.2876 111.329 11.71 111.778 12.0078C112.232 12.3008 112.769 12.4473 113.389 12.4473C114.356 12.4473 115.101 12.1299 115.623 11.4951C116.15 10.8604 116.414 9.95947 116.414 8.79248ZM122.178 7.74512V14H120.259V3.68018H123.152L124.998 9.45166C125.081 9.77393 125.167 10.0986 125.254 10.4258C125.342 10.748 125.428 11.0703 125.511 11.3926C125.564 11.207 125.616 11.0239 125.665 10.8433C125.713 10.6577 125.762 10.4722 125.811 10.2866C125.865 10.1011 125.918 9.91797 125.972 9.7373L127.869 3.68018H130.748V14H128.829V7.74512C128.829 7.60352 128.833 7.32031 128.843 6.89551C128.858 6.46582 128.877 5.99951 128.902 5.49658C128.731 6.15088 128.58 6.70752 128.448 7.1665C128.321 7.62549 128.216 7.98438 128.133 8.24316L126.272 14H124.734L122.874 8.24316L122.09 5.49658C122.12 6.06299 122.142 6.53418 122.156 6.91016C122.171 7.28125 122.178 7.55957 122.178 7.74512ZM141.705 10.8433C141.705 11.4634 141.551 12.0127 141.243 12.4912C140.936 12.9648 140.496 13.3359 139.925 13.6045C139.354 13.8682 138.675 14 137.889 14H132.754V3.68018H134.915V7.78906H138.123C139.271 7.78906 140.154 8.05762 140.774 8.59473C141.395 9.12695 141.705 9.87646 141.705 10.8433ZM145.433 3.68018V14H143.272V3.68018H145.433ZM139.522 10.8726C139.522 10.4185 139.351 10.0693 139.009 9.8252C138.672 9.57617 138.167 9.45166 137.493 9.45166H134.915V12.3154H137.537C138.201 12.3154 138.697 12.1958 139.024 11.9565C139.356 11.7124 139.522 11.3511 139.522 10.8726ZM160.513 3.68018V14H147.447V3.68018H149.534V12.2129H152.933V3.68018H155.02V12.2129H158.426V3.68018H160.513ZM164.849 11.9492C164.6 12.7305 164.285 13.2871 163.904 13.6191C163.523 13.9512 162.989 14.1172 162.3 14.1172C161.968 14.1172 161.727 14.0757 161.575 13.9927V12.1836C161.639 12.2178 161.744 12.2349 161.89 12.2349C162.032 12.2349 162.159 12.1934 162.271 12.1104C162.383 12.0225 162.486 11.8931 162.579 11.7222C162.662 11.5659 162.74 11.3706 162.813 11.1362C162.891 10.897 162.967 10.6138 163.04 10.2866C163.084 10.0864 163.13 9.84961 163.179 9.57617C163.228 9.30273 163.289 8.93408 163.362 8.47021C163.44 8.00146 163.536 7.38379 163.648 6.61719C163.76 5.85059 163.899 4.87158 164.065 3.68018H171.038V14H168.958V5.46729H165.977L165.618 8.01611C165.354 9.84229 165.098 11.1533 164.849 11.9492ZM181.468 12.3301V14H173.052V3.68018H181.167V5.3501H175.213V7.94287H180.721V9.61279H175.213V12.3301H181.468ZM185.218 9.57617V14H183.057V3.68018H185.218V7.78906H189.715V3.68018H191.875V14H189.715V9.57617H185.218ZM200.811 6.05322L196.351 14H193.89V3.68018H195.809V9.67871C195.809 9.9375 195.804 10.2354 195.794 10.5723C195.784 10.9092 195.77 11.2827 195.75 11.6929L200.24 3.68018H202.671V14H200.752V7.91357C200.752 7.72314 200.757 7.47412 200.767 7.1665C200.777 6.854 200.792 6.48291 200.811 6.05322ZM208.758 10.0815L206.363 14H203.931L206.722 9.66406C206.023 9.49805 205.469 9.15381 205.059 8.63135C204.649 8.104 204.444 7.479 204.444 6.75635C204.444 5.76514 204.778 5.00586 205.447 4.47852C206.121 3.94629 207.071 3.68018 208.296 3.68018H213.453V14H211.292V10.0815H208.758ZM206.619 6.84424C206.619 7.33252 206.773 7.71582 207.081 7.99414C207.393 8.26758 207.854 8.4043 208.465 8.4043H211.292V5.35742H208.523C207.889 5.35742 207.413 5.48193 207.095 5.73096C206.778 5.97998 206.619 6.35107 206.619 6.84424ZM221.788 9.56885V14H219.634V3.68018H221.795V8.06738C221.922 8.06738 222.054 8.03076 222.19 7.95752C222.327 7.87939 222.469 7.76465 222.615 7.61328C222.913 7.2959 223.289 6.77588 223.743 6.05322L225.252 3.68018H227.449L225.508 6.64648C224.898 7.57422 224.48 8.12109 224.256 8.28711L227.808 14H225.457L222.718 9.3125C222.62 9.37598 222.476 9.43457 222.286 9.48828C222.095 9.54199 221.929 9.56885 221.788 9.56885ZM230.665 14.1465C230.318 14.1465 229.974 14.1025 229.632 14.0146C229.29 13.9316 229.017 13.8291 228.812 13.707L229.412 11.9053C229.847 12.1104 230.237 12.2129 230.584 12.2129C230.813 12.2129 231.009 12.1689 231.17 12.0811C231.336 11.9932 231.492 11.8516 231.639 11.6562C231.785 11.4512 231.988 11.0679 232.247 10.5063L228.174 3.68018H230.423L233.265 8.66064L235.447 3.68018H237.637L233.792 11.6709C233.455 12.374 233.147 12.8867 232.869 13.209C232.586 13.5361 232.269 13.7754 231.917 13.9268C231.57 14.0732 231.153 14.1465 230.665 14.1465ZM242.508 9.89111L239.915 14H237.63L241.204 8.57275L237.93 3.68018H240.215L242.508 7.32764L244.8 3.68018H247.071L243.936 8.57275L247.371 14H245.101L242.508 9.89111ZM258.16 8.79248C258.16 9.8667 257.942 10.8066 257.508 11.6123C257.078 12.4131 256.47 13.0356 255.684 13.48C254.903 13.9243 253.985 14.1465 252.93 14.1465C251.851 14.1465 250.923 13.9316 250.147 13.502C249.371 13.0674 248.775 12.4497 248.36 11.6489C247.945 10.8481 247.737 9.896 247.737 8.79248C247.737 7.68896 247.942 6.74414 248.353 5.95801C248.768 5.17188 249.363 4.57129 250.14 4.15625C250.921 3.73633 251.856 3.52637 252.945 3.52637C254.039 3.52637 254.974 3.73877 255.75 4.16357C256.526 4.5835 257.122 5.18652 257.537 5.97266C257.952 6.75879 258.16 7.69873 258.16 8.79248ZM255.955 8.79248C255.955 7.6792 255.691 6.80762 255.164 6.17773C254.637 5.54297 253.897 5.22559 252.945 5.22559C251.978 5.22559 251.231 5.54053 250.704 6.17041C250.176 6.79541 249.913 7.66943 249.913 8.79248C249.913 9.54443 250.035 10.1938 250.279 10.7407C250.523 11.2876 250.87 11.71 251.319 12.0078C251.773 12.3008 252.31 12.4473 252.93 12.4473C253.897 12.4473 254.642 12.1299 255.164 11.4951C255.691 10.8604 255.955 9.95947 255.955 8.79248ZM261.961 9.57617V14H259.8V3.68018H261.961V7.78906H266.458V3.68018H268.619V14H266.458V9.57617H261.961ZM272.801 9.57617V14H270.64V3.68018H272.801V7.78906H277.298V3.68018H279.458V14H277.298V9.57617H272.801ZM291.514 8.79248C291.514 9.8667 291.297 10.8066 290.862 11.6123C290.433 12.4131 289.825 13.0356 289.039 13.48C288.257 13.9243 287.339 14.1465 286.285 14.1465C285.206 14.1465 284.278 13.9316 283.501 13.502C282.725 13.0674 282.129 12.4497 281.714 11.6489C281.299 10.8481 281.092 9.896 281.092 8.79248C281.092 7.68896 281.297 6.74414 281.707 5.95801C282.122 5.17188 282.718 4.57129 283.494 4.15625C284.275 3.73633 285.21 3.52637 286.299 3.52637C287.393 3.52637 288.328 3.73877 289.104 4.16357C289.881 4.5835 290.477 5.18652 290.892 5.97266C291.307 6.75879 291.514 7.69873 291.514 8.79248ZM289.31 8.79248C289.31 7.6792 289.046 6.80762 288.519 6.17773C287.991 5.54297 287.251 5.22559 286.299 5.22559C285.333 5.22559 284.585 5.54053 284.058 6.17041C283.531 6.79541 283.267 7.66943 283.267 8.79248C283.267 9.54443 283.389 10.1938 283.633 10.7407C283.877 11.2876 284.224 11.71 284.673 12.0078C285.127 12.3008 285.665 12.4473 286.285 12.4473C287.251 12.4473 287.996 12.1299 288.519 11.4951C289.046 10.8604 289.31 9.95947 289.31 8.79248ZM301.57 12.3301V14H293.155V3.68018H301.27V5.3501H295.315V7.94287H300.823V9.61279H295.315V12.3301H301.57ZM317.369 8.79248C317.369 9.8667 317.151 10.8066 316.717 11.6123C316.287 12.4131 315.679 13.0356 314.893 13.48C314.112 13.9243 313.194 14.1465 312.139 14.1465C311.06 14.1465 310.132 13.9316 309.356 13.502C308.58 13.0674 307.984 12.4497 307.569 11.6489C307.154 10.8481 306.946 9.896 306.946 8.79248C306.946 7.68896 307.151 6.74414 307.562 5.95801C307.977 5.17188 308.572 4.57129 309.349 4.15625C310.13 3.73633 311.065 3.52637 312.154 3.52637C313.248 3.52637 314.183 3.73877 314.959 4.16357C315.735 4.5835 316.331 5.18652 316.746 5.97266C317.161 6.75879 317.369 7.69873 317.369 8.79248ZM315.164 8.79248C315.164 7.6792 314.9 6.80762 314.373 6.17773C313.846 5.54297 313.106 5.22559 312.154 5.22559C311.187 5.22559 310.44 5.54053 309.913 6.17041C309.385 6.79541 309.122 7.66943 309.122 8.79248C309.122 9.54443 309.244 10.1938 309.488 10.7407C309.732 11.2876 310.079 11.71 310.528 12.0078C310.982 12.3008 311.519 12.4473 312.139 12.4473C313.106 12.4473 313.851 12.1299 314.373 11.4951C314.9 10.8604 315.164 9.95947 315.164 8.79248ZM328.252 10.8433C328.252 11.4634 328.099 12.0127 327.791 12.4912C327.483 12.9648 327.044 13.3359 326.473 13.6045C325.901 13.8682 325.223 14 324.437 14H319.009V3.68018H326.78V5.34277H321.17V7.78906H324.671C325.818 7.78906 326.702 8.05762 327.322 8.59473C327.942 9.12695 328.252 9.87646 328.252 10.8433ZM326.07 10.8726C326.07 10.4185 325.899 10.0693 325.557 9.8252C325.22 9.57617 324.715 9.45166 324.041 9.45166H321.17V12.3154H324.085C324.749 12.3154 325.245 12.1958 325.572 11.9565C325.904 11.7124 326.07 11.3511 326.07 10.8726ZM339.825 8.79248C339.825 9.8667 339.607 10.8066 339.173 11.6123C338.743 12.4131 338.135 13.0356 337.349 13.48C336.568 13.9243 335.65 14.1465 334.595 14.1465C333.516 14.1465 332.588 13.9316 331.812 13.502C331.036 13.0674 330.44 12.4497 330.025 11.6489C329.61 10.8481 329.402 9.896 329.402 8.79248C329.402 7.68896 329.607 6.74414 330.018 5.95801C330.433 5.17188 331.028 4.57129 331.805 4.15625C332.586 3.73633 333.521 3.52637 334.61 3.52637C335.704 3.52637 336.639 3.73877 337.415 4.16357C338.191 4.5835 338.787 5.18652 339.202 5.97266C339.617 6.75879 339.825 7.69873 339.825 8.79248ZM337.62 8.79248C337.62 7.6792 337.356 6.80762 336.829 6.17773C336.302 5.54297 335.562 5.22559 334.61 5.22559C333.643 5.22559 332.896 5.54053 332.369 6.17041C331.841 6.79541 331.578 7.66943 331.578 8.79248C331.578 9.54443 331.7 10.1938 331.944 10.7407C332.188 11.2876 332.535 11.71 332.984 12.0078C333.438 12.3008 333.975 12.4473 334.595 12.4473C335.562 12.4473 336.307 12.1299 336.829 11.4951C337.356 10.8604 337.62 9.95947 337.62 8.79248ZM349.954 6.94678C349.954 7.61572 349.8 8.20898 349.493 8.72656C349.19 9.23926 348.758 9.64209 348.196 9.93506C347.635 10.2231 346.966 10.3672 346.189 10.3672H343.626V14H341.465V3.68018H346.102C347.337 3.68018 348.287 3.96582 348.951 4.53711C349.62 5.10352 349.954 5.90674 349.954 6.94678ZM347.779 6.9834C347.779 5.89941 347.139 5.35742 345.86 5.35742H343.626V8.70459H345.918C346.514 8.70459 346.973 8.55811 347.295 8.26514C347.618 7.96729 347.779 7.54004 347.779 6.9834ZM352.759 14.1465C352.413 14.1465 352.068 14.1025 351.727 14.0146C351.385 13.9316 351.111 13.8291 350.906 13.707L351.507 11.9053C351.941 12.1104 352.332 12.2129 352.679 12.2129C352.908 12.2129 353.104 12.1689 353.265 12.0811C353.431 11.9932 353.587 11.8516 353.733 11.6562C353.88 11.4512 354.083 11.0679 354.341 10.5063L350.269 3.68018H352.518L355.359 8.66064L357.542 3.68018H359.732L355.887 11.6709C355.55 12.374 355.242 12.8867 354.964 13.209C354.681 13.5361 354.363 13.7754 354.012 13.9268C353.665 14.0732 353.248 14.1465 352.759 14.1465ZM360.794 14V16.9883H358.963V12.2129H360.105C360.457 11.5732 360.77 10.7847 361.043 9.84717C361.316 8.90479 361.524 7.93555 361.666 6.93945L362.112 3.68018H367.891V12.2129H369.246V16.9883H367.415V14H360.794ZM362.369 12.2129H365.804V5.46729H363.885L363.658 7.18115C363.565 7.84521 363.45 8.49463 363.313 9.12939C363.177 9.76416 363.028 10.3477 362.867 10.8799C362.706 11.4072 362.54 11.8516 362.369 12.2129ZM380.562 8.79248C380.562 9.8667 380.345 10.8066 379.91 11.6123C379.48 12.4131 378.873 13.0356 378.086 13.48C377.305 13.9243 376.387 14.1465 375.333 14.1465C374.253 14.1465 373.326 13.9316 372.549 13.502C371.773 13.0674 371.177 12.4497 370.762 11.6489C370.347 10.8481 370.14 9.896 370.14 8.79248C370.14 7.68896 370.345 6.74414 370.755 5.95801C371.17 5.17188 371.766 4.57129 372.542 4.15625C373.323 3.73633 374.258 3.52637 375.347 3.52637C376.441 3.52637 377.376 3.73877 378.152 4.16357C378.929 4.5835 379.524 5.18652 379.939 5.97266C380.354 6.75879 380.562 7.69873 380.562 8.79248ZM378.357 8.79248C378.357 7.6792 378.094 6.80762 377.566 6.17773C377.039 5.54297 376.299 5.22559 375.347 5.22559C374.38 5.22559 373.633 5.54053 373.106 6.17041C372.579 6.79541 372.315 7.66943 372.315 8.79248C372.315 9.54443 372.437 10.1938 372.681 10.7407C372.925 11.2876 373.272 11.71 373.721 12.0078C374.175 12.3008 374.712 12.4473 375.333 12.4473C376.299 12.4473 377.044 12.1299 377.566 11.4951C378.094 10.8604 378.357 9.95947 378.357 8.79248ZM391.351 11.0557C391.351 11.9932 390.999 12.7183 390.296 13.231C389.593 13.7437 388.616 14 387.366 14H382.203V3.68018H386.927C388.187 3.68018 389.139 3.8999 389.783 4.33936C390.433 4.77393 390.757 5.41846 390.757 6.27295C390.757 6.85889 390.594 7.35449 390.267 7.75977C389.944 8.16016 389.451 8.43115 388.787 8.57275C389.622 8.67041 390.257 8.93408 390.691 9.36377C391.131 9.78857 391.351 10.3525 391.351 11.0557ZM388.582 6.56592C388.582 6.10205 388.433 5.77246 388.135 5.57715C387.842 5.38184 387.405 5.28418 386.824 5.28418H384.363V7.84033H386.839C387.449 7.84033 387.891 7.73535 388.165 7.52539C388.443 7.31055 388.582 6.99072 388.582 6.56592ZM389.183 10.8872C389.183 9.92041 388.489 9.43701 387.103 9.43701H384.363V12.396H387.183C387.876 12.396 388.382 12.2715 388.699 12.0225C389.021 11.7686 389.183 11.3901 389.183 10.8872ZM394.742 11.3633L393.826 14H391.666L395.43 3.68018H397.979L401.729 14H399.59L398.675 11.3633H394.742ZM396.705 5.26953C396.656 5.46484 396.587 5.69922 396.5 5.97266C396.412 6.24609 396.348 6.43896 396.309 6.55127L395.225 9.7373H398.191L397.078 6.48535C397.01 6.28516 396.946 6.08252 396.888 5.87744C396.829 5.67236 396.768 5.46973 396.705 5.26953ZM405.296 9.57617V14H403.135V3.68018H405.296V7.78906H409.793V3.68018H411.954V14H409.793V9.57617H405.296ZM420.889 6.05322L416.429 14H413.968V3.68018H415.887V9.67871C415.887 9.9375 415.882 10.2354 415.872 10.5723C415.862 10.9092 415.848 11.2827 415.828 11.6929L420.318 3.68018H422.75V14H420.831V7.91357C420.831 7.72314 420.835 7.47412 420.845 7.1665C420.855 6.854 420.87 6.48291 420.889 6.05322ZM433.172 12.3301V14H424.756V3.68018H432.872V5.3501H426.917V7.94287H432.425V9.61279H426.917V12.3301H433.172Z" fill="#667C87"/>
<rect y="9" width="76" height="1" fill="#667C87"/>
<path d="M445 9H521V10H445V9Z" fill="#667C87"/>
</svg>
