<svg width="293" height="17" viewBox="0 0 293 17" fill="none" xmlns="http://www.w3.org/2000/svg">
<path d="M92.8228 12.4473C94.1313 12.4473 95.0371 11.793 95.54 10.4844L97.4224 11.1948C97.0171 12.1909 96.4214 12.9331 95.6353 13.4214C94.854 13.9048 93.9165 14.1465 92.8228 14.1465C91.7192 14.1465 90.7793 13.9365 90.0029 13.5166C89.2266 13.0918 88.6333 12.479 88.2231 11.6782C87.8179 10.8774 87.6152 9.91553 87.6152 8.79248C87.6152 7.65967 87.8105 6.70264 88.2012 5.92139C88.5918 5.14014 89.168 4.54687 89.9297 4.1416C90.6914 3.73145 91.624 3.52637 92.7275 3.52637C93.9385 3.52637 94.9248 3.77051 95.6865 4.25879C96.4482 4.74219 96.9829 5.45508 97.2905 6.39746L95.3862 6.91748C95.2251 6.3999 94.9077 5.98975 94.4341 5.68701C93.9653 5.37939 93.4111 5.22559 92.7715 5.22559C91.7949 5.22559 91.0527 5.52832 90.5449 6.13379C90.042 6.73926 89.7905 7.62549 89.7905 8.79248C89.7905 9.5835 89.9053 10.25 90.1348 10.792C90.3691 11.334 90.7109 11.7466 91.1602 12.0298C91.6143 12.3081 92.1685 12.4473 92.8228 12.4473ZM102.278 9.89111L99.6855 14H97.4004L100.975 8.57275L97.7007 3.68018H99.9858L102.278 7.32764L104.571 3.68018H106.841L103.707 8.57275L107.142 14H104.871L102.278 9.89111ZM116.692 12.3301V14H108.277V3.68018H116.392V5.3501H110.438V7.94287H115.945V9.61279H110.438V12.3301H116.692ZM120.201 7.74512V14H118.282V3.68018H121.175L123.021 9.45166C123.104 9.77393 123.189 10.0986 123.277 10.4258C123.365 10.748 123.45 11.0703 123.533 11.3926C123.587 11.207 123.638 11.0239 123.687 10.8433C123.736 10.6577 123.785 10.4722 123.833 10.2866C123.887 10.1011 123.941 9.91797 123.995 9.7373L125.892 3.68018H128.77V14H126.851V7.74512C126.851 7.60352 126.856 7.32031 126.866 6.89551C126.88 6.46582 126.9 5.99951 126.924 5.49658C126.753 6.15088 126.602 6.70752 126.47 7.1665C126.343 7.62549 126.238 7.98438 126.155 8.24316L124.295 14H122.757L120.896 8.24316L120.113 5.49658C120.142 6.06299 120.164 6.53418 120.179 6.91016C120.193 7.28125 120.201 7.55957 120.201 7.74512ZM133.223 11.3633L132.308 14H130.147L133.912 3.68018H136.46L140.21 14H138.072L137.156 11.3633H133.223ZM135.186 5.26953C135.137 5.46484 135.069 5.69922 134.981 5.97266C134.893 6.24609 134.83 6.43896 134.791 6.55127L133.707 9.7373H136.673L135.56 6.48535C135.491 6.28516 135.428 6.08252 135.369 5.87744C135.311 5.67236 135.25 5.46973 135.186 5.26953ZM149.461 14.1465C148.309 14.1465 147.381 13.917 146.678 13.458C145.979 12.9941 145.462 12.2764 145.125 11.3047L147.059 10.6235C147.503 11.8589 148.304 12.4766 149.461 12.4766C150.091 12.4766 150.569 12.3472 150.896 12.0884C151.224 11.8247 151.387 11.4561 151.387 10.9824C151.387 10.4893 151.192 10.1353 150.801 9.92041C150.416 9.70068 149.81 9.59082 148.985 9.59082H148.553V7.92822H148.985C149.722 7.92822 150.267 7.81104 150.618 7.57666C150.97 7.34229 151.146 6.98096 151.146 6.49268C151.146 6.04834 150.994 5.70898 150.691 5.47461C150.394 5.24023 149.981 5.12305 149.454 5.12305C148.936 5.12305 148.501 5.27441 148.15 5.57715C147.798 5.875 147.53 6.32666 147.344 6.93213L145.381 6.48535C146.045 4.51758 147.415 3.53369 149.49 3.53369C150.242 3.53369 150.899 3.64355 151.46 3.86328C152.022 4.08301 152.457 4.39551 152.764 4.80078C153.077 5.20117 153.233 5.6748 153.233 6.22168C153.233 6.85156 153.06 7.37646 152.713 7.79639C152.366 8.21631 151.856 8.51172 151.182 8.68262C151.919 8.79004 152.488 9.05371 152.889 9.47363C153.294 9.89355 153.497 10.4258 153.497 11.0703C153.497 11.6953 153.331 12.2397 152.999 12.7036C152.671 13.1626 152.205 13.519 151.6 13.7729C150.999 14.022 150.286 14.1465 149.461 14.1465ZM157.642 11.3633L156.727 14H154.566L158.331 3.68018H160.879L164.629 14H162.491L161.575 11.3633H157.642ZM159.605 5.26953C159.556 5.46484 159.488 5.69922 159.4 5.97266C159.312 6.24609 159.249 6.43896 159.209 6.55127L158.125 9.7373H161.092L159.979 6.48535C159.91 6.28516 159.847 6.08252 159.788 5.87744C159.729 5.67236 159.668 5.46973 159.605 5.26953ZM168.189 9.56885V14H166.036V3.68018H168.196V8.06738C168.323 8.06738 168.455 8.03076 168.592 7.95752C168.729 7.87939 168.87 7.76465 169.017 7.61328C169.314 7.2959 169.69 6.77588 170.145 6.05322L171.653 3.68018H173.851L171.91 6.64648C171.299 7.57422 170.882 8.12109 170.657 8.28711L174.209 14H171.858L169.119 9.3125C169.021 9.37598 168.877 9.43457 168.687 9.48828C168.497 9.54199 168.331 9.56885 168.189 9.56885ZM177.637 11.3633L176.722 14H174.561L178.326 3.68018H180.875L184.625 14H182.486L181.57 11.3633H177.637ZM179.6 5.26953C179.551 5.46484 179.483 5.69922 179.395 5.97266C179.307 6.24609 179.244 6.43896 179.205 6.55127L178.121 9.7373H181.087L179.974 6.48535C179.905 6.28516 179.842 6.08252 179.783 5.87744C179.725 5.67236 179.664 5.46973 179.6 5.26953ZM189.7 14.1465C188.548 14.1465 187.62 13.917 186.917 13.458C186.219 12.9941 185.701 12.2764 185.364 11.3047L187.298 10.6235C187.742 11.8589 188.543 12.4766 189.7 12.4766C190.33 12.4766 190.809 12.3472 191.136 12.0884C191.463 11.8247 191.626 11.4561 191.626 10.9824C191.626 10.4893 191.431 10.1353 191.041 9.92041C190.655 9.70068 190.049 9.59082 189.224 9.59082H188.792V7.92822H189.224C189.961 7.92822 190.506 7.81104 190.857 7.57666C191.209 7.34229 191.385 6.98096 191.385 6.49268C191.385 6.04834 191.233 5.70898 190.931 5.47461C190.633 5.24023 190.22 5.12305 189.693 5.12305C189.175 5.12305 188.741 5.27441 188.389 5.57715C188.038 5.875 187.769 6.32666 187.583 6.93213L185.621 6.48535C186.285 4.51758 187.654 3.53369 189.729 3.53369C190.481 3.53369 191.138 3.64355 191.7 3.86328C192.261 4.08301 192.696 4.39551 193.003 4.80078C193.316 5.20117 193.472 5.6748 193.472 6.22168C193.472 6.85156 193.299 7.37646 192.952 7.79639C192.605 8.21631 192.095 8.51172 191.421 8.68262C192.159 8.79004 192.728 9.05371 193.128 9.47363C193.533 9.89355 193.736 10.4258 193.736 11.0703C193.736 11.6953 193.57 12.2397 193.238 12.7036C192.911 13.1626 192.444 13.519 191.839 13.7729C191.238 14.022 190.525 14.1465 189.7 14.1465ZM197.881 11.3633L196.966 14H194.805L198.57 3.68018H201.119L204.869 14H202.73L201.814 11.3633H197.881ZM199.844 5.26953C199.795 5.46484 199.727 5.69922 199.639 5.97266C199.551 6.24609 199.488 6.43896 199.449 6.55127L198.365 9.7373H201.331L200.218 6.48535C200.149 6.28516 200.086 6.08252 200.027 5.87744C199.969 5.67236 199.908 5.46973 199.844 5.26953Z" fill="#667C87"/>
<rect y="8" width="76" height="1" fill="#667C87"/>
<rect x="217" y="8" width="76" height="1" fill="#667C87"/>
</svg>
